<svg xmlns="http://www.w3.org/2000/svg" viewBox="0 0 322 200"><g fill="none" fill-rule="evenodd"><path fill="#1CD000" d="M317 164.2L281.5 198 269 181l24.1-21.9-24.1-22.4 11.9-16.7 36.1 34.1zM112 148.7c0-7.1 2.2-12.7 6.5-16.7 4.4-4 10.4-6 18-6s15.4 1 23.2 3l-2.5 20.5A114 114 0 0 0 137 146c-2 0-3 .8-3 2.5 0 1 1 2 3.3 3a53 53 0 0 1 17.7 9.7c4 3.6 5.9 9.1 5.9 16.4 0 7.3-1.9 12.8-5.6 16.6-3.7 3.8-9.4 5.7-17 5.7-7.7 0-15.4-1-23-3l1.6-19.9c9.8 2.7 16.1 4 19 4 2.9 0 4.3-.7 4.3-2 0-1.5-1-2.5-3.2-3.3-8.7-3.4-15-7-19-10.7-4.1-3.8-6.1-9.3-6.1-16.4zM225 133a26.4 26.4 0 0 1 17.7-6.9c6.4 0 10.9 1.5 13.4 4.5 2.6 3 3.9 7.4 3.9 13.4V198h-24.7v-45.8c0-2.4-1.1-3.6-3.2-3.6-2.8 0-5 .7-6.9 2V198h-24.7v-45.8c0-2.4-1-3.6-3.2-3.6-2.7 0-5 .7-6.9 2V198H166v-70.2h22.3l1.4 5h.6a28.2 28.2 0 0 1 19-6.8c7.3 0 12 2.7 14.3 8.2l1.5-1.3z"/><path fill="#000" d="M72.2 132.9a26.2 26.2 0 0 1 17.5-6.9c6.4 0 10.9 1.5 13.5 4.5 2.5 3 3.8 7.4 3.8 13.4V198H82.4v-45.8c0-2.4-1.1-3.6-3.2-3.6-2.7 0-5 .7-6.8 2V198H48v-70.2h22.2l1.4 5h.6zM38 198H14v-70h24v70zm-22-74.7c-2-1.8-3-4.7-3-8.7 0-4 1-6.9 3-8.8 2-1.9 5.4-2.8 10-2.8s8 1 10 2.8c2 2 3 4.8 3 8.8 0 4-1 6.8-3 8.6-2 1.9-5.4 2.8-10 2.8s-8-.9-10-2.7z"/><path fill="#1CD000" d="M80 0c6 0 12.4.3 19 .9l-2 21.4c-4.4-.5-7.6-.7-9.6-.7s-3 .8-3 2.6v2.6h12L95.2 45H84.7v50H60.4V45H54V26.8h6.4v-7.3C60.4 6.5 67 0 80.1 0zm44 55.6V95h-24V24.8h21.2l1.4 4.2h.6c2.2-2.5 4.4-4.2 6.7-4.9 2.3-.7 6-1.1 11.1-1.1l-1 23.5h-6.7c-3.7 0-6.2.5-7.4 1.7-1.2 1.2-1.9 3.6-1.9 7.4zm20 4.3c0-13 2.5-22.4 7.4-28.2 5-5.8 12.8-8.7 23.3-8.7 10.6 0 18.3 2.9 23 8.6 4.9 5.7 7.3 15 7.3 28.1 0 13-2.4 22.5-7 28.4-4.8 6-12.5 8.9-23.2 8.9s-18.5-3-23.4-8.9c-5-5.9-7.4-15.3-7.4-28.2zm35-14c-.7-2-2.3-2.9-5-2.9-2.6 0-4.2 1-5 2.9-.6 2-1 6-1 12.2v3.5c0 6.9.4 11.3 1 13.4.8 2 2.4 3 5 3s4.2-1 5-3c.6-2 1-6.2 1-12.5v-4.3c0-6.2-.4-10.4-1-12.3zm57.2-16a26.2 26.2 0 0 1 17.5-6.9c6.4 0 10.9 1.5 13.5 4.5 2.5 3 3.8 7.4 3.8 13.4V95h-24.6V49.2c0-2.4-1.1-3.6-3.2-3.6-2.7 0-5 .7-6.8 2V95H212V24.8h22.2l1.4 5h.6zm83.9 65.8c-7.3.9-13.6 1.3-19 1.3-5.3 0-9.5-1.4-12.5-4.2-3-2.7-4.5-7.5-4.5-14.4V44.6H277V26.4h8.3l1.3-13.4h22.3v13.4H322l-1 18.2h-12.3v29c0 2 1 3 3 3 .2 0 3.2 0 9.1-.3l-.7 19.4zM35.5 95L0 61.2V51.1L36.1 17 48 33.7 23.9 56.1 48 78z"/></g></svg>