<svg xmlns="http://www.w3.org/2000/svg" width="128" height="48" viewBox="0 0 128 48">
  <g fill="none" fill-rule="evenodd">
    <path fill="#FFF" d="M0.223,31.73 L7.26,24.69 L6.338,24.69 L6.338,24.677 L6.314,24.677 C4.27906029,24.6556656 2.24404456,24.6423322 0.209,24.637 L0.184,24.6 L0.184,21.085 C0.191,21.057 0.204,21.046 0.222,21.046 L14.284,20.965 L14.309,21.007 L14.309,24.692 L12.503,24.692 L7.118,30.017 L7.108,30.007 L7.09,30.025 C6.442,30.655 5.851,31.229 5.318,31.749 L8.271,31.759 C11.02,31.784 13.023,31.798 14.284,31.798 L14.309,31.837 L14.309,35.372 L14.284,35.411 C14.168,35.411 13.85,35.418 13.324,35.436 C12.303,35.436 7.928,35.464 0.209,35.516 L0.184,35.478 L0.184,31.73 L0.223,31.73 Z M32.232,11.042 L34.62,14.808 L30.621,14.808 L28.243,11.058 L26.77,11.074 L26.77,11.007 C26.34,11 26.021,10.997 25.809,10.997 L23.958,10.997 C23.976,11.483 23.986,13.47 23.986,13.678 L23.986,14.388 C23.986,14.455 23.99,14.557 24,14.688 L23.958,14.716 C23.088,14.716 21.891,14.72 20.322,14.726 C20.308,11.936 20.296,8.343 20.283,3.91 L20.153,3.91 L20.1,3.882 C20.117,3.392 20.124,3.022 20.124,2.767 L20.124,0.497 C20.134,0.42 20.156,0.381 20.191,0.381 C28.017,0.434 32.476,0.459 33.571,0.459 C34.076,0.469 34.419,0.473 34.592,0.473 C34.61,0.498 34.62,0.523 34.62,0.537 C34.62,1.151 34.61,1.457 34.592,1.457 C34.61,2.262 34.62,2.915 34.62,3.423 L34.62,7.848 C34.62,8.522 34.61,9.585 34.592,11.035 C34.574,11.042 34.556,11.049 34.542,11.049 C34.068,11.049 33.298,11.046 32.232,11.042 Z M76.41,10.127 L85.093,10.127 C85.18,10.149 85.223,10.181 85.223,10.224 L85.223,24.876 C85.223,27.539 85.201,31.069 85.158,35.466 C85.115,35.466 85.093,35.476 85.093,35.498 C84.2910273,35.485373 83.4890249,35.4747063 82.687,35.466 C78.784,35.466 67.671,35.401 49.35,35.271 L49.318,35.141 L49.318,21.854 C49.318,21.789 49.35,21.757 49.415,21.757 L58.164,21.757 C58.229,21.757 58.261,21.789 58.261,21.854 L58.261,27.084 C58.521,27.084 59.237,27.063 60.408,27.019 C61.34,27.019 66.121,26.998 74.751,26.954 C75.618,26.933 76.138,26.922 76.311,26.922 L76.311,10.224 C76.311,10.159 76.344,10.127 76.41,10.127 Z M90.818,10.557 C90.97,10.557 91.35,10.579 91.956,10.622 C93.214,10.622 105.096,10.795 127.602,11.142 L127.668,11.239 L127.668,12.279 C127.668,14.683 127.592,20.216 127.44,28.879 C127.375,28.922 127.331,28.944 127.31,28.944 C126.03,28.944 123.212,28.922 118.854,28.879 C118.788,28.727 118.756,28.511 118.756,28.229 L118.756,20.075 C118.647,20.075 118.322,20.097 117.78,20.14 C116.826,20.14 112.425,20.173 104.576,20.238 L127.505,38.56 L127.928,46.843 L127.798,46.908 C122.941,47.082 118.377,47.168 114.105,47.168 C110.745,47.168 103.004,47.114 90.884,47.006 L90.818,46.908 L90.818,46.584 L90.493,46.584 L90.396,46.551 L90.753,29.659 C90.796,29.659 90.818,29.637 90.818,29.594 C91.252,29.637 91.512,29.659 91.599,29.659 C92.552,29.659 95.144,29.68 99.372,29.724 L99.437,29.821 L99.437,39.111 L99.47,39.111 C104.11,39.111 108.956,39.069 114.008,38.981 L90.722,20.336 L90.722,20.304 C90.722,18.116 90.732,14.889 90.754,10.623 C90.797,10.623 90.819,10.601 90.819,10.558 L90.818,10.557 Z M1.325,0.13 L14.86,0.13 C14.888,0.13 14.906,0.204 14.913,0.352 L14.942,0.352 L14.913,0.458 L14.913,1.181 C14.913,3.969 14.888,7.145 14.835,10.713 C14.8220259,10.8397062 14.8126888,10.9667584 14.807,11.094 L15.044,11.094 C15.061,11.094 15.083,11.115 15.111,11.158 C15.111,11.648 15.09,12.985 15.044,15.174 L15.004,15.198 L0.04,14.885 L0.026,14.847 C0.026,14.25 0.054,12.707 0.103,10.217 L0,0.304 L0.04,0.275 L1.273,0.275 L1.273,0.17 C1.283,0.146 1.301,0.132 1.326,0.132 L1.325,0.13 Z M4.172,4.131 L4.172,6.161 C4.272,6.172 4.322,6.176 4.332,6.176 C4.604,6.176 6.769,6.225 10.829,6.32 L10.829,4.132 L4.172,4.132 L4.172,4.131 Z M4.278,8.878 L4.172,8.903 C4.15800905,9.42389078 4.15000852,9.94492523 4.148,10.466 L4.148,12.059 L10.79,12.137 L10.79,11.017 C10.807,10.533 10.818,10.159 10.818,9.887 L10.818,8.71 L10.828,8.605 C6.646,8.788 4.463,8.88 4.278,8.88 L4.278,8.878 Z M23.855,3.92 C23.855,4.802 23.912,4.887 24.025,7.441 C25.335,7.459 26.325,7.467 27.002,7.467 L31.525,7.467 C31.431,4.555 31.385,4.47 31.385,3.947 L25.325,3.947 C25.024,3.947 24.534,3.937 23.855,3.92 L23.855,3.92 Z M53.115,0 C53.547,0 53.855,0.186 54.038,0.564 L54.261,0.564 C54.286,0.571 54.3,0.584 54.3,0.602 L54.3,0.68 C54.3,1.39 54.313,2.416 54.339,3.765 C54.313,3.765 54.299,3.775 54.299,3.803 L54.299,7.604 L54.561,7.604 C54.589,7.604 54.6,7.618 54.6,7.647 C54.6,8.187 54.621,9.442 54.667,11.408 L54.628,11.423 L54.233,11.423 L54.233,11.447 L54.18,14.778 L54.14,14.807 L50.911,14.739 C50.911,14.732 50.908,14.726 50.908,14.726 C50.908,14.316 50.911,14.012 50.911,13.822 L50.911,11.447 C50.816,11.447 50.427,11.454 49.742,11.461 C46.192,11.479 44.065,11.486 43.362,11.486 L43.362,12.089 C43.362,12.693 43.372,13.564 43.389,14.7 C43.354,14.726 43.326,14.74 43.312,14.74 L40.079,14.807 L40.069,14.764 C39.998,12.555 39.962,9.361 39.962,5.194 L39.962,3.644 C39.962,3.2 39.969,2.586 39.987,1.81 C39.969,1.792 39.962,1.742 39.962,1.665 C39.9710822,1.5150461 40.0073378,1.36799062 40.069,1.231 C40.0520247,1.13652783 40.0419978,1.04093833 40.039,0.945 L40.039,0.932 C40.039,0.635 40.269,0.434 40.722,0.328 L40.775,0.328 L53.115,0 Z M43.336,3.49 C43.336,3.959 43.323,5.278 43.297,7.448 L50.611,7.251 L50.611,7.226 C50.611,6.527 50.597,5.268 50.572,3.446 C47.262,3.476 44.852,3.489 43.336,3.489 L43.336,3.49 Z M19.68,21.03 C20.111,21.048 20.43,21.055 20.641,21.055 L23.673,21.055 L23.711,21.083 C23.704,23.793 23.687,28.575 23.658,35.428 L23.619,35.443 L20.129,35.443 C19.776,35.443 19.602,35.425 19.602,35.39 C19.627,28.081 19.652,23.303 19.67,21.055 C19.676,21.055 19.68,21.048 19.68,21.03 Z M28.884,20.963 L33.424,20.963 C33.452,20.963 33.466,20.977 33.466,21.006 L33.466,31.995 L43.27,32.044 L43.299,32.097 L43.299,35.327 C43.299,35.35 43.284,35.365 43.26,35.365 C41.755,35.365 36.943,35.389 28.831,35.442 L28.802,35.403 L28.802,32.005 L28.845,31.952 L28.845,21.007 C28.852,20.978 28.866,20.964 28.884,20.964 L28.884,20.963 Z"/>
    <path fill="#FFEE1E" d="M85.062,39.022 L85.094,39.12 L85.094,47.5 C85.094,47.566 85.062,47.598 84.996,47.598 C64.268,47.468 52.376,47.403 49.318,47.403 L49.253,47.306 L49.253,39.314 C49.253,39.249 49.286,39.217 49.351,39.217 C72.074,39.087 83.978,39.022 85.061,39.022 L85.062,39.022 Z"/>
  </g>
</svg>
