<svg xmlns="http://www.w3.org/2000/svg" width="256" heigth="256" viewBox="0 0 256 256">
  <g fill="none">
    <circle cx="128" cy="128" r="128" fill="#0669DE" />
    <path fill="#FFF" d="M41.3274824,0.169704704 C39.0355512,0.5624896 37.5457659,2.9382016 37.6412047,5.12692429 C37.5839014,18.8391337 37.6603392,32.5702152 37.6030359,46.2823918 C37.5264645,48.2094871 37.9277878,50.5665556 39.7229903,51.6889149 C42.0150551,53.5037906 45.8349069,52.4187835 46.9618381,49.8183708 C47.4774008,48.5837921 47.5538386,47.236994 47.5729731,45.908512 C47.5538386,32.8136901 47.5348378,19.7185738 47.5729731,6.62358861 C47.5538386,5.08970317 47.4965353,3.44346752 46.5798162,2.13402138 C45.5674916,0.412754432 43.2755269,-0.372782336 41.3274824,0.169704704 Z M6.73806925,18.8392645 C3.56755098,21.4584187 1.5430487,25.2185751 0.645447424,29.1470118 C-0.290586368,32.5890875 -0.118576384,36.2369917 0.588010496,39.7165829 C1.29476122,43.1961741 2.80366746,46.6757327 5.47749709,49.1448899 C9.46919194,53.1483579 16.0204004,53.9901844 21.1773289,51.8761329 C22.9535304,51.1092065 24.3477435,49.7435034 25.6083156,48.3217068 C25.5509123,50.1364188 25.6846198,52.0258678 24.9780462,53.7468403 C24.0421594,56.2348698 21.5209149,57.9001741 18.8852308,58.2365384 C15.4090985,58.7605786 11.9329997,57.713087 8.76258509,56.4221204 C6.98638336,55.823082 5.0381719,54.8318147 3.20467379,55.7672502 C1.82934144,56.6276547 0.683456,58.0679309 0.664307968,59.7143304 C0.721728256,61.4353027 2.02035226,62.8198781 3.43383347,63.6802826 C6.22237312,65.3451287 9.46932557,66.0376456 12.6207393,66.636128 C17.6630612,67.2159672 23.1064061,66.8796029 27.5756951,64.3348585 C29.9631985,63.0068017 31.9112765,61.0052966 33.2864553,58.68558 C35.0245215,55.5987738 35.5975544,52.0072573 35.5401175,48.5274043 C35.520983,39.7913196 35.520983,31.0552023 35.5401175,22.3375972 C35.5594189,20.5041108 35.3682409,18.4838318 33.9740613,17.1182922 C32.2932984,15.2848059 29.2373235,15.3223214 27.2892454,16.706635 C26.4296627,17.5298184 25.9903375,18.6335667 25.5129103,19.6810583 C24.6917302,18.6709189 23.7175744,17.754421 22.6479462,16.9873311 C17.7011965,14.0690012 10.9591109,15.1352343 6.73806925,18.8392645 Z M17.2620383,24.3206551 C18.8280945,24.2457876 20.508991,24.5450941 21.750462,25.5367539 C23.4502592,26.621761 24.2522714,28.5111772 24.9208765,30.3070172 C25.6466181,32.9072991 25.8376289,35.7319875 24.9017421,38.2949171 C24.2522714,40.315327 23.0108004,42.3356063 21.0244534,43.3085245 C18.1404884,44.7489316 14.129492,44.0940613 12.2387172,41.4003341 C10.6343588,39.4547917 10.1569316,36.8731205 9.98505523,34.4225738 C9.96608768,31.728683 10.7299645,28.9975711 12.4107274,26.827426 C13.5566262,25.349536 15.3711301,24.39549 17.2620383,24.3206551 Z M66.5389253,15.3224522 C63.6548603,15.4346716 60.7325929,16.1455373 58.2689188,17.6794227 C52.8254738,20.8596744 49.5213181,26.9021627 49.1201951,33.0193551 C49.0055887,37.2283899 49.8842056,41.6246426 52.3098778,45.1790684 C53.9142029,47.7232243 56.2824384,49.7996293 59.0136947,51.1464276 C64.265995,53.8403185 70.93181,53.5411425 75.9932664,50.5479452 C80.7871741,47.8726648 83.6712727,42.691039 84.5688906,37.471734 C85.6003497,30.8120218 83.2318139,23.553696 77.8649068,19.2135695 C74.7517955,16.6318984 70.6453939,15.1727498 66.5389253,15.3224522 Z M66.5389253,24.3206551 C68.1050148,24.2457876 69.7857777,24.5450941 71.0272486,25.5366231 C72.6126062,26.565504 73.5101908,28.2864765 74.1404936,29.9888056 C75.0955484,33.1690903 75.1528184,36.7609011 73.5293253,39.7353244 C72.3834266,42.2608694 69.7859113,44.2248916 66.8445094,44.0378371 C63.9795789,44.0756145 61.3821637,42.1485192 60.2743002,39.6043633 C58.364224,35.4327135 58.7081106,30.1011889 61.7449175,26.509378 C62.8909499,25.1061919 64.7434557,24.39549 66.5389253,24.3206551 Z M87.4718231,1.7784576 C86.5741048,2.9382016 86.2686543,4.43486566 86.3066563,5.87540378 C86.3447916,19.2884372 86.3254902,32.68286 86.3066563,46.0957299 C86.3446579,47.4800438 86.3253565,48.9954493 87.089534,50.2112865 C88.4074427,52.7182211 92.0745526,53.2044838 94.3666506,51.7268557 C95.340673,50.9223811 95.7992663,49.6876716 96.3147287,48.5839229 C98.6832312,51.8949069 103.114251,53.5039214 107.163383,52.8677926 C110.773223,52.4750405 114.172918,50.7165852 116.617591,48.0789187 C119.253375,45.1415529 121.02961,41.4562967 121.56434,37.5651794 C122.156642,34.3102234 121.621777,30.9617567 120.857734,27.7814723 C119.673699,23.8153564 117.47734,19.9056609 113.829064,17.660812 C108.615,14.0876119 101.128038,14.7049667 96.257559,18.6148255 C96.2195571,14.5553951 96.2768604,10.4959647 96.2768604,6.4365015 C96.2385582,4.84635904 96.2385582,3.03177779 95.0926927,1.7784576 C93.3544596,-0.616126464 89.2480246,-0.52264832 87.4718231,1.7784576 Z M103.782823,24.2831396 C105.63563,24.1709199 107.469134,24.8817528 108.78701,26.153847 C112.683299,30.3254971 112.835874,37.3781248 109.188033,41.736862 C106.934237,44.4307528 102.388777,44.8050578 99.7336914,42.4851776 C97.2124803,40.4088051 96.3913001,37.0414664 96.3148623,33.9360492 C96.1812882,31.2608998 97.1168745,28.6045245 98.7978045,26.5092472 C100.001274,25.0688399 101.911183,24.3578435 103.782823,24.2831396 Z M140.453989,15.3224522 C137.56989,15.4346716 134.647656,16.1455373 132.184016,17.6794227 C126.740804,20.8596744 123.436248,26.9021627 123.035258,33.0193551 C122.920685,37.2283899 123.799135,41.6246426 126.224774,45.1790684 C127.829133,47.7232243 130.178634,49.7996293 132.928724,51.1464276 C138.181225,53.8403185 144.847007,53.5411425 149.908563,50.5479452 C154.702271,47.8726648 157.586403,42.691039 158.483854,37.471734 C159.515413,30.8120218 157.146877,23.553696 151.780037,19.2135695 C148.666859,16.6318984 144.560457,15.1727498 140.453989,15.3224522 Z M140.453989,24.3206551 C142.020345,24.2457876 143.700841,24.5450941 144.942446,25.5366231 C146.527636,26.565504 147.425388,28.2864765 148.055557,29.9888056 C149.010612,33.1690903 149.067748,36.7609011 147.444255,39.7353244 C146.298523,42.2608694 143.700841,44.2248916 140.759573,44.0378371 C137.894642,44.0756145 135.297127,42.1485192 134.189497,39.6043633 C132.279421,35.4327135 132.623174,30.1011889 135.659981,26.509378 C136.806013,25.1061919 138.658786,24.39549 140.453989,24.3206551 Z M47.057377,56.8520937 C42.51165,57.2639142 38.3287772,59.9202895 35.9031386,63.6804134 C33.2674545,67.6087519 32.3697362,72.5663642 33.4201964,77.1495729 C34.4133865,82.2753999 38.0996308,86.9520543 43.1609539,88.7669299 C47.40113,90.3193933 52.3478797,89.8705149 56.3397082,87.8125896 C57.848628,87.0833096 59.3192453,85.6613494 59.1855378,83.8841528 C59.3765486,81.6020498 56.8553042,79.5256773 54.601642,80.3110833 C52.5961605,80.9099584 50.686218,82.0510917 48.527861,81.8077476 C45.6820646,81.8262272 43.4282691,79.5255465 42.4159442,77.1123517 C41.2127421,73.5392824 41.594764,69.1430625 44.3641559,66.3556936 C46.1403574,64.7091635 48.7951759,64.2229332 51.1062415,64.8962506 C52.8824433,65.2704248 54.506103,66.5052652 56.3968778,66.1872497 C58.8225167,65.625825 59.8731438,62.5577925 58.8225167,60.5001615 C58.1159096,59.45267 57.0081797,58.68558 55.843113,58.1616709 C53.0737546,57.1141793 50.0559485,56.4780831 47.057377,56.8520937 Z M104.107842,57.3575232 C102.350508,57.881269 100.879724,59.0412746 99.5617147,60.2755589 C99.2942326,59.5837617 99.0841206,58.8164104 98.5110876,58.2927954 C96.6394473,56.2348698 92.6284511,56.9647386 91.6926976,59.564726 C90.9288207,61.0612593 91.1578335,62.8198781 91.0813957,64.428631 C91.1198318,70.6582065 91.062228,76.9063923 91.1005304,83.1356736 C91.1578335,84.8569075 91.195969,86.8026135 92.4757089,88.1492808 C94.1565053,89.9264776 97.4416266,89.7021693 98.8741087,87.7564961 C99.6952888,86.8026135 99.9055677,85.4738371 99.8864,84.2580326 C99.9245688,79.5812147 99.8479974,74.9042988 99.8864,70.2276444 C99.8864,68.6563743 100.038975,67.009877 100.99403,65.7005617 C102.636657,63.5679322 106.055486,63.3436239 108.15644,64.9336353 C109.226168,65.9248699 109.89464,67.2908347 110.009213,68.7311112 C110.104618,73.7073664 109.89464,78.7021998 110.066349,83.6967713 C110.123786,85.1560835 110.238359,86.7462257 111.212381,87.9435832 C112.07173,88.8412088 113.275033,89.5336927 114.592941,89.308992 C116.999613,89.402601 118.890387,87.0831788 118.756513,84.8194248 C118.909522,79.8247224 118.699243,74.8298563 118.81395,69.8534702 C118.833084,68.1141816 119.234107,66.1497341 120.743027,65.0273751 C122.156374,63.6616719 124.371868,63.6993183 126.129068,64.3540577 C127.828832,65.1023734 128.76502,66.9730483 128.917595,68.731242 C128.994166,73.4080599 128.84129,78.0848451 128.936896,82.7616302 C128.994166,84.4828969 128.975032,86.3535718 130.044659,87.8314944 C131.419838,89.6273344 134.303803,89.7958108 136.041869,88.4299768 C137.436183,87.4760617 137.741767,85.6426081 137.722766,84.0712399 C137.684463,78.7771981 137.741633,73.4641531 137.684463,68.1698499 C137.741633,65.1023734 136.767878,61.922089 134.47578,59.7516823 C131.782826,57.394581 127.982008,56.4033464 124.448573,56.8711296 C121.450034,57.338782 118.737946,58.9288914 116.617724,61.0240381 C115.796411,60.1821135 114.95623,59.3404503 113.98204,58.68558 C111.174546,56.6840425 107.354695,56.2722545 104.107842,57.3575232 Z M72.6507418,56.8520937 C70.8362378,57.0769907 69.0025994,57.5446103 67.3982408,58.4237891 C62.6998054,60.780694 59.6819658,65.5887345 58.8225167,70.6019494 C57.8674954,76.719436 60.2548652,83.4355361 65.4883318,87.0833096 C71.2945306,91.14274 80.0231304,90.4316454 85.0271834,85.4182996 C91.4445504,79.0392835 91.4253824,67.6088827 84.9507456,61.2861235 C81.8566351,58.0496148 77.1773007,56.2722545 72.6507418,56.8520937 Z M73.2237412,64.7091635 C75.630112,64.2415439 78.2086597,65.3452923 79.4498301,67.4216648 C81.6274888,70.8824819 81.703626,75.597077 79.4882662,79.0577633 C77.9412109,81.658176 74.2932357,82.5935788 71.5619791,81.3213865 C68.257857,79.6377661 67.1499599,75.6905551 67.4174088,72.2856681 C67.5511165,69.0118072 69.5947668,65.1769467 73.2237412,64.7091635 Z M27.3848177,80.6102592 C25.0164488,81.0406904 23.2784161,83.5290143 23.7558433,85.8673416 C24.1186972,87.9996767 26.1815155,89.8517734 28.4542787,89.6646863 C31.0136922,89.776906 33.4011955,87.3449697 33.0381745,84.8195556 C33.0573089,82.1067599 30.0969395,79.8434312 27.3848177,80.6102592 Z" transform="translate(49.664 82.688)" />
  </g>
</svg>