<svg xmlns="http://www.w3.org/2000/svg" width="421" height="118" viewBox="0 0 421 118">
  <g fill="none" fill-rule="evenodd" transform="translate(-1)">
    <path d="M13.19,57.65 C12.6101095,58.1569389 12.0778849,58.715942 11.6,59.32 C11.0279741,60.1823243 10.7251531,61.1952086 10.73,62.23 C11.6166746,61.3806418 12.6284527,60.6723971 13.73,60.13 L13.19,57.65 Z"/>
    <path fill="#EA6F0C" fill-rule="nonzero" d="M28.48 18.24C28.6452917 18.6047476 28.7337921 18.9995956 28.74 19.4 28.7111897 20.1522064 28.4006489 20.8660934 27.87 21.4 27.7 21.63 26.58 21.58 26.01 22.51L26.01 22.57 26.01 22.64 26.01 22.99C26.0866015 23.8918019 26.7172902 24.650225 27.59 24.89 28.0325841 25.0642691 28.5043487 25.1525128 28.98 25.15 30.5919941 25.0969931 32.0690835 24.2362972 32.91 22.86 33.4138245 21.9923821 33.6697928 21.0030993 33.65 20 33.59 16.38 30.37 13.21 29.99 10 29.9747272 9.84036447 29.9747272 9.67963553 29.99 9.52 29.99 7.12 32.22 4.52 32.29 1.83L32.29 1.83 32.29 1.74C32.2590643 1.32575109 31.9953616.965098775 31.61.81 31.2330785.65514197 30.8271596.583509223 30.42.6 29.2441328.5687176 28.126002 1.10914748 27.42 2.05 26.3 4.39 24.51 6.86 24.5 9.41 24.4876318 10.2546799 24.7203542 11.0848387 25.17 11.8 26.12 14 27.45 15.91 28.48 18.24zM39.64 20.08C39.5770002 21.0703483 39.3400465 22.0418582 38.94 22.95 38.8336705 23.2210969 38.7761177 23.5088607 38.77 23.8 38.7875349 24.34522 39.0270129 24.8596194 39.4329504 25.224019 39.8388878 25.5884187 40.3760558 25.7711945 40.92 25.73L40.92 25.73C41.520883 25.7366771 42.0985773 25.4983782 42.52 25.07 44.62 22.91 45.41 21.07 45.41 19.46 45.41 17.39 44.18 15.83 43.18 14.39 41.9680175 12.7974976 40.916248 11.0892095 40.04 9.29 39.6557056 8.68697495 39.4192867 8.00170269 39.35 7.29 39.3941887 6.42960116 39.8148073 5.63225456 40.5 5.11 41.0055741 4.59553576 41.2675202 3.88973636 41.22 3.17 41.2554874 2.25027467 40.8907389 1.36028832 40.22.73 39.6748035.300579645 39.0124706.0461043724 38.32 0 37.08 0 36.32 1 35.73 2.1 35.1444342 3.3962432 34.6531587 4.73304721 34.26 6.1 34.0923504 6.63414806 34.0047332 7.19018027 34 7.75 34.06 11.88 38.49 15.1 39.46 18.94 39.5728044 19.3097614 39.6333901 19.693471 39.64 20.08zM8.08 22.33C8.5252476 22.8383652 8.79520392 23.4764438 8.85 24.15 8.83869442 24.5980568 8.74019234 25.0396179 8.56 25.45 7.98963723 26.2679334 7.54785323 27.1683634 7.25 28.12L7.25 28.25C7.27501126 28.680781 7.60224937 29.0331913 8.03 29.09L8.1 29.09C8.56 29.09 8.89 28.9 9.27 28.9L9.56 28.9C11.6073622 28.8223294 13.3371017 27.3567983 13.75 25.35 13.829451 24.9787314 13.8663555 24.5996214 13.86 24.22 13.78 19.62 8.42 17.44 6.77 14.03 6.41599047 13.2352938 6.2516616 12.3691437 6.29 11.5 6.29 10.26 6.5 8.92 6.5 7.63 6.52253952 6.91462288 6.42104028 6.20074492 6.2 5.52 5.98790064 5.05881789 5.50462444 4.78496137 5 4.84 3.49588808 4.90811015 2.18305599 5.88087127 1.68 7.3 1.35870643 9.14388689 1.13174445 11.0029725 1 12.87.938505078 14.509728 1.58293646 16.0971409 2.77 17.23 4.78 19.14 6.9 20.65 8.08 22.33zM16.73 17.86C16.8947404 18.2987076 16.9859657 18.7615912 17 19.23 16.950781 20.1406224 16.7723282 21.0396202 16.47 21.9 16.402686 22.0997335 16.368896 22.3092314 16.37 22.52 16.3524697 23.0087963 16.5913054 23.4713034 17 23.74 17.3969059 23.9710989 17.850978 24.0854834 18.31 24.07 19.2340332 24.0809192 20.1238212 23.7206811 20.78 23.07 21.6867716 21.9333466 22.1835592 20.52402 22.19 19.07 22.0715699 16.955091 21.3802361 14.9121997 20.19 13.16 18.48 10.34 16.19 7.79 15.89 5.01L15.99 4.93C16.7381073 4.63165411 17.5067705 4.3876871 18.29 4.2 18.8894198 4.03234821 19.4643066 3.78692872 20 3.47 20.54 3.12 21.11 2.76 21.15 2.03 21.1402853 1.67689675 20.956926 1.35134058 20.66 1.16 19.7745568.643155374 18.7651675.376980803 17.74.39 14.74.39 11.54 2.39 10.74 5.31 10.6407522 5.75298515 10.593765 6.20607588 10.6 6.66 10.68 11 15.49 14 16.72 17.84L16.73 17.86z"/>
    <path fill="#2B2724" fill-rule="nonzero" d="M65.85,48.22 C63.4696857,47.0724692 60.851884,46.5036799 58.21,46.56 L58.11,46.56 C55.39,39.77 52,34.7 47.87,31.5 C42.2763455,27.3285775 35.4457963,25.1526603 28.47,25.32 C24.6232745,25.3558529 20.7964221,25.8766273 17.08,26.87 C16.81,26.15 16.54,25.42 16.21,24.75 C16.1127679,24.5642151 15.9373696,24.4318043 15.7320545,24.3891918 C15.5267395,24.3465792 15.3131348,24.3982536 15.15,24.53 C14.7384048,24.923574 14.5670269,25.5062589 14.7,26.06 C14.7881305,26.5447606 14.8116685,27.0390585 14.77,27.53 C12.6154919,28.1820654 10.5045757,28.9703189 8.45,29.89 L7.39,30.38 C7.0433875,30.543775 6.85650482,30.9258463 6.94,31.3 L8.28,37 C7.7,37.48 7.12,38 6.5,38.5 C5.88,39 5.87,40.1 6.33,40.24 C7.25260562,40.4703014 8.19912605,40.5911338 9.15,40.6 L10.53,46.44 L10.47,46.6 C10.32,46.99 10.08,47.39 9.95,47.7 C9.62,48.42 10.25,49.25 10.62,49.03 C10.78,48.93 10.92,48.81 11.07,48.7 L12.59,55.12 C11.4848482,55.875479 10.5118018,56.8079819 9.71,57.88 C8.797623,59.1714895 8.31799728,60.7188951 8.34,62.3 C8.32249627,63.158801 8.48959569,64.011349 8.83,64.8 L8.9,64.9 C8.54744698,65.860825 8.36800434,66.8765381 8.37,67.9 C8.37,68.3 8.37,68.72 8.43,69.15 C8.64762661,71.28057 9.92132485,73.1591809 11.82,74.15 C13.5639656,75.0486766 15.4887167,75.5409753 17.45,75.59 L23.66,101.78 C23.7179926,102.02563 23.8884942,102.22949 24.12,102.33 L24.45,102.4 L24.83,102.31 L26.47,101.41 C28.9002417,100.061379 31.2599849,98.5894602 33.54,97 C34.5477265,96.2863607 35.7669404,95.9339868 37,96 C38.273992,96.078541 39.533467,96.313643 40.75,96.7 C42.8146831,97.3292601 44.952837,97.6856191 47.11,97.76 C48.1560341,97.7617234 49.1990472,97.6476962 50.22,97.42 C52.7472934,96.9303916 54.9268819,95.3442373 56.17,93.09 C56.9397491,91.5864807 57.3343065,89.9190468 57.32,88.23 C57.32,87.72 57.32,87.34 57.26,87.1 C57.2,84.53 55.84,81.82 54.53,79.2 L54.11,78.36 C51.81,74 51.37,72.4 51.41,71.8 L51.41,71.68 C53.0295152,70.8674326 54.7519408,70.278713 56.53,69.93 C57.73,69.64 58.87,69.34 59.8,69.04 C60.2720834,68.8855288 60.7276537,68.6845419 61.16,68.44 C61.4735705,68.275112 61.7547568,68.0549059 61.99,67.79 C62.4131261,67.3199952 62.6512104,66.7123472 62.66,66.08 C62.5504889,63.7261067 62.2494944,61.3850383 61.76,59.08 C63.1824608,58.8371147 64.5630217,58.3926414 65.86,57.76 C67.86,56.76 69.4,55.12 69.43,53.01 C69.46,50.9 67.84,49.27 65.85,48.22 Z M28.46,28.53 C34.714745,28.3556867 40.8476385,30.2814575 45.88,34 C49.27,36.63 52.21,40.89 54.65,46.66 C53.2165446,46.8946775 51.8272481,47.3465361 50.53,48 C49.2208463,48.5889138 48.1370123,49.585059 47.44,50.84 C47.2335802,50.8257142 47.0264198,50.8257142 46.82,50.84 C46.2756671,50.8508768 45.733444,50.9111238 45.2,51.02 C44.26,47.02 40.04,44.02 35.11,44.02 C29.84,44.02 25.49,47.33 24.91,51.72 C21.6930405,51.7783621 18.5087362,52.3766868 15.49,53.49 L13.8,46.32 C14.29,45.74 14.8,45.08 15.36,44.32 L15.49,44.15 C16.01,43.45 16.61,42.66 17.2,42.66 L17.26,42.66 C18.854906,42.9316879 20.3491161,43.6218542 21.59,44.66 C21.97,44.92 22.36,45.19 22.79,45.47 C23.05,45.64 23.31,45.83 23.56,46.02 C24.2308181,46.6490131 25.0863917,47.0452418 26,47.15 L26.37,47.15 L26.37,47.15 C26.65,47.15 26.81,46.85 26.97,46.54 C27.0548232,46.3763277 27.1517598,46.2192235 27.26,46.07 L27.26,46.07 L27.26,46.07 C27.3453182,45.766273 27.2823065,45.440095 27.09,45.19 L27,45 C26.87,44.75 26.76,44.52 26.66,44.29 C26.3154725,43.4931313 25.8755959,42.740976 25.35,42.05 C24.65,41.13 23.98,40.24 23.35,39.37 C22.99,38.87 22.62,38.37 22.25,37.88 C23.0845367,37.2954116 24.015381,36.8621459 25,36.6 C25.46,36.44 25.93,36.29 26.38,36.09 C26.8366945,35.7881756 27.0531603,35.2309766 26.92,34.7 C26.8499215,34.4002611 26.6673369,34.1389145 26.41,33.97 L26.41,33.97 L26.41,33.97 C25.3203278,33.8632533 24.2540851,33.58657 23.25,33.15 C22.6777812,33.0326811 22.0938547,32.9823426 21.51,33 C20.7471593,33.0395775 19.9844071,32.9203974 19.27,32.65 C18.93,32.48 18.8,31.92 18.7,31.42 L18.61,31 L18.37,30.21 L18.26,29.87 C21.592666,29.0092198 25.0180889,28.5592132 28.46,28.53 L28.46,28.53 Z M42.71,52.59 C42.6653276,54.2083936 41.8847554,55.7179908 40.59,56.69 C39.021722,57.89784 37.089158,58.5361503 35.11,58.5 C33.1307439,58.5261827 31.2003388,57.8850627 29.63,56.68 C28.2984756,55.743671 27.5060911,54.2177805 27.5060911,52.59 C27.5060911,50.9622195 28.2984756,49.436329 29.63,48.5 C32.8885174,46.0533311 37.3714826,46.0533311 40.63,48.5 C41.9058563,49.4788937 42.6704597,50.9823686 42.71,52.59 L42.71,52.59 Z M13.71,31.24 C13.57,31.68 13.44,32.1 13.33,32.53 C13.1925038,32.7263314 13.0235704,32.8986434 12.83,33.04 L12.63,33.21 L12.63,33.64 C12.1175426,34.0546723 11.5834596,34.4418824 11.03,34.8 L10.49,32.48 C11.61,32 12.71,31.61 13.75,31.24 L13.71,31.24 Z M12.48,45.09 L12.48,45.09 C12.7,44.28 12.85,43.49 12.96,42.83 L13.11,41.94 C13.17,41.57 13.24,41.19 13.31,40.79 C13.3872565,40.5141544 13.4980854,40.2488365 13.64,40 C13.7471936,39.8102154 13.8407627,39.613052 13.92,39.41 C14.1159732,38.9877867 14.0858933,38.495229 13.84,38.1 L13.84,38.1 L13.84,38.1 C13.6669038,37.9701779 13.4563702,37.9 13.24,37.9 C12.8864341,37.920569 12.5432032,38.0269706 12.24,38.21 L11.98,38.28 L11.73,38.28 C11.2716969,38.4308225 10.7924798,38.5084422 10.31,38.51 C9.95293105,38.5062301 9.59739779,38.462627 9.25,38.38 C9.49177233,38.121662 9.78015943,37.911309 10.1,37.76 L10.51,37.53 C10.83,37.36 11.16,37.2 11.51,37 C11.8217812,36.82185 12.113464,36.6106315 12.38,36.37 L12.68,36.23 C12.8539858,36.1890828 13.0048668,36.0813107 13.1,35.93 L13.42,35.62 C13.7551984,35.3399359 14.0364728,35.0010511 14.25,34.62 C14.8484084,33.5416224 15.2672223,32.3729966 15.49,31.16 L15.64,30.55 C15.75,30.11 15.88,29.64 16.04,29.17 C16.19,29.49 16.33,29.84 16.48,30.25 C16.74,30.95 16.96,31.67 17.19,32.43 C17.42,33.19 17.72,34.24 18.07,35.14 C18.1120441,35.2848611 18.2495403,35.3806918 18.4,35.37 L18.64,35.37 L18.77,35.46 L18.86,35.67 L19.04,35.53 C19.4326497,35.2333199 19.9189241,35.0877926 20.41,35.12 L20.93,35.12 L21.45,35.12 L21.75,35.12 L22.06,35.12 C22.2939797,35.1061986 22.5239585,35.1852538 22.7,35.34 L21.99,35.73 C21.355315,36.104591 20.6854468,36.4160797 19.99,36.66 L19.99,36.66 C19.6809866,36.9112783 19.4746674,37.267001 19.41,37.66 C19.3559317,37.9277467 19.4137417,38.2059575 19.57,38.43 C19.6538208,38.6583374 19.80346,38.8566964 20,39 L20.32,39.26 C21.695479,40.6178139 22.8948755,42.1430968 23.89,43.8 L23.89,43.8 C23.75,43.8 23.58,43.62 23.41,43.45 L23.3,43.34 C22.5639355,42.7558921 21.7736673,42.2435572 20.94,41.81 C19.9990884,41.3108737 19.1197817,40.7034138 18.32,40 C18.1293452,39.8219699 17.8806985,39.7189591 17.62,39.71 C17.01,39.71 16.5,40.34 15.96,41.01 C15.7049084,41.3446785 15.4204458,41.655914 15.11,41.94 C14.4930275,42.5213087 13.9337545,43.1609562 13.44,43.85 L13.05,44.35 L12.88,44.58 L12.48,45.09 Z M11.6,59.32 C12.0778849,58.715942 12.6101095,58.1569389 13.19,57.65 L13.78,60.13 C12.6784527,60.6723971 11.6666746,61.3806418 10.78,62.23 C10.7602961,61.2003492 11.045598,60.1878753 11.6,59.32 L11.6,59.32 Z M13.1,72 C11.9168216,71.4439963 11.1174391,70.3020212 11,69 C11,68.57 11,68.24 11,68 C10.9185585,66.7188896 11.3462311,65.4574351 12.19,64.49 C12.7905374,63.8458121 13.4933236,63.3052073 14.27,62.89 L16.65,73 C15.4103229,72.9153025 14.2016141,72.5748212 13.1,72 Z M56.1,66.78 L56.1,66.78 C53.51,67.45 50.59,68.2 49.22,69.4 C46.95,71.4 49,75.4 51.22,79.71 C52.1536088,81.4469344 52.9623215,83.2481581 53.64,85.1 C48.86,84.4 45.64,83.17 43.03,80.99 C40.42,78.81 38.37,75.87 35.94,72.36 C35.6413658,71.932111 35.1517924,71.6779813 34.63,71.68 C34.3055605,71.6806888 33.9887075,71.778182 33.72,71.96 C33.3669724,72.1969048 33.1251161,72.5668539 33.0497266,72.985266 C32.974337,73.4036782 33.0718604,73.8347768 33.32,74.18 L33.46,74.4 C35.86,77.94 38,81 40.92,83.44 C44.07,86.01 47.92,87.54 53.19,88.25 L54.06,88.36 C54.2645621,91.2154096 52.2863555,93.7668221 49.47,94.28 C48.7246157,94.4441849 47.9632382,94.5246829 47.2,94.52 C45.3499166,94.460739 43.5150185,94.1650045 41.74,93.64 C40.1416066,93.1379025 38.4839886,92.8487439 36.81,92.78 C34.9411315,92.7770904 33.121116,93.3767487 31.62,94.49 C30.7,95.13 28.62,96.58 26.05,98.04 L16.12,56.1 C18.9599933,55.0235418 21.9634713,54.4417871 25,54.38 C26,58.38 30.2,61.22 35.07,61.23 C40.23,61.23 44.58,57.99 45.25,53.69 L45.25,53.69 C45.7508498,53.5630939 46.263685,53.4893529 46.78,53.47 L46.88,53.47 C47.2121378,55.5182535 48.5992592,57.2398041 50.53,58 C52.9434937,59.0895047 55.573081,59.616106 58.22,59.54 L58.55,59.54 C58.9841291,61.5902593 59.2715244,63.6688626 59.41,65.76 C58.3312775,66.1517521 57.22913,66.4757166 56.11,66.73 L56.1,66.78 Z M64.65,55.5 C63.562418,56.0307342 62.4037373,56.4012425 61.21,56.6 C60.2203093,56.7823099 59.2163343,56.8760142 58.21,56.88 L58.21,56.88 C55.9904324,56.9374922 53.785273,56.5073837 51.75,55.62 C50.3,54.88 49.57,54 49.57,53.02 C49.57,52.04 50.3,51.17 51.75,50.43 C53.0369776,49.8421031 54.412091,49.4704508 55.82,49.33 C56.6058189,49.2265748 57.3974104,49.1731341 58.19,49.17 L58.19,49.17 L58.67,49.17 L58.97,49.17 C60.9310984,49.2119566 62.8620163,49.6614824 64.64,50.49 C66.29,51.36 66.86,52.34 66.83,52.97 C66.8,53.6 66.32,54.59 64.66,55.45 L64.65,55.5 Z"/>
    <path fill="#FFF" fill-rule="nonzero" d="M18.61 31L18.7 31.39C18.8 31.89 18.93 32.45 19.27 32.62 19.9844071 32.8903974 20.7471593 33.0095775 21.51 32.97 22.0701418 32.9543832 22.6302766 33.0013406 23.18 33.11 24.1840851 33.54657 25.2503278 33.8232533 26.34 33.93L26.34 33.93 26.34 33.93C26.5973369 34.0989145 26.7799215 34.3602611 26.85 34.66 26.9831603 35.1909766 26.7666945 35.7481756 26.31 36.05 25.86 36.25 25.39 36.4 24.93 36.56 23.9433543 36.8313496 23.0123884 37.2748279 22.18 37.87 22.55 38.37 22.92 38.87 23.28 39.36 23.92 40.23 24.59 41.12 25.28 42.04 25.8055959 42.730976 26.2454725 43.4831313 26.59 44.28 26.69 44.51 26.8 44.74 26.93 44.99L26.99 45.09C27.1823065 45.340095 27.2453182 45.666273 27.16 45.97L27.16 45.97 27.16 45.97C27.0517598 46.1192235 26.9548232 46.2763277 26.87 46.44 26.71 46.75 26.55 47.05 26.27 47.05L26.27 47.05 25.9 47.05C25.0310049 46.9474304 24.2143271 46.5809724 23.56 46 23.31 45.81 23.05 45.62 22.79 45.45 22.36 45.17 21.97 44.9 21.59 44.64 20.3491161 43.6018542 18.854906 42.9116879 17.26 42.64L17.2 42.64C16.61 42.64 16.01 43.43 15.49 44.13L15.36 44.3C14.8 45.06 14.29 45.72 13.8 46.3L15.49 53.42C18.5087362 52.3066868 21.6930405 51.7083621 24.91 51.65 25.49 47.26 29.84 43.95 35.11 43.95 40.04 43.95 44.26 46.87 45.2 50.95 45.733444 50.8411238 46.2756671 50.7808768 46.82 50.77 47.0264198 50.7557142 47.2335802 50.7557142 47.44 50.77 48.1487108 49.5411464 49.2312817 48.5706864 50.53 48 51.8323228 47.3776507 53.2214188 46.9562016 54.65 46.75 52.21 40.98 49.27 36.75 45.88 34.09 40.8527642 30.3572147 34.7194159 28.4172177 28.46 28.58 25.017266 28.6157473 21.59183 29.0724721 18.26 29.94L18.37 30.28 18.61 31zM12.67 33.64L12.67 33.21 12.87 33.04C13.0635704 32.8986434 13.2325038 32.7263314 13.37 32.53 13.48 32.1 13.61 31.68 13.75 31.24 12.75 31.61 11.61 32.01 10.53 32.48L11.07 34.8C11.6234596 34.4418824 12.1575426 34.0546723 12.67 33.64L12.67 33.64zM58.48 59.53L58.22 59.53C55.5738516 59.6092436 52.9442982 59.0860685 50.53 58 48.6175051 57.2303511 47.2477645 55.5153296 46.92 53.48L46.82 53.48C46.303685 53.4993529 45.7908498 53.5730939 45.29 53.7L45.29 53.7C44.62 58 40.29 61.23 35.11 61.24 30.24 61.24 26.03 58.36 25.04 54.39 21.9899957 54.4472189 18.9726028 55.029048 16.12 56.11L26.05 98C28.58 96.54 30.7 95.09 31.62 94.45 33.121116 93.3367487 34.9411315 92.7370904 36.81 92.74 38.4839886 92.8087439 40.1416066 93.0979025 41.74 93.6 43.5150185 94.1250045 45.3499166 94.420739 47.2 94.48 47.9632382 94.4846829 48.7246157 94.4041849 49.47 94.24 52.2863555 93.7268221 54.2645621 91.1754096 54.06 88.32L53.19 88.21C48 87.54 44.07 86 40.92 83.44 38 81 35.86 77.94 33.38 74.36L33.24 74.14C32.9918604 73.7947768 32.894337 73.3636782 32.9697266 72.945266 33.0451161 72.5268539 33.2869724 72.1569048 33.64 71.92 33.9087075 71.738182 34.2255605 71.6406888 34.55 71.64 35.0717924 71.6379813 35.5613658 71.892111 35.86 72.32 38.29 75.83 40.39 78.86 43 81 45.61 83.14 48.83 84.41 53.61 85.11 52.9323215 83.2581581 52.1236088 81.4569344 51.19 79.72 49.01 75.44 46.96 71.4 49.19 69.41 50.56 68.21 53.48 67.41 56.07 66.79L56.07 66.79C57.1898015 66.5258998 58.2919597 66.1919125 59.37 65.79 59.2315244 63.6988626 58.9441291 61.6202593 58.51 59.57L58.48 59.53zM12.15 64.41C11.3206395 65.3836028 10.9075631 66.6443838 11 67.92 11 68.19 11 68.52 11 68.92 11.1154805 70.2198317 11.9107004 71.3612956 13.09 71.92 14.1916141 72.4948212 15.4003229 72.8353025 16.64 72.92L14.23 62.81C13.4533236 63.2252073 12.7505374 63.7658121 12.15 64.41L12.15 64.41z"/>
    <path fill="#009B3E" fill-rule="nonzero" d="M64.67 50.48C62.8920163 49.6514824 60.9610984 49.2019566 59 49.16L58.7 49.16 58.22 49.16 58.22 49.16C57.4274104 49.1631341 56.6358189 49.2165748 55.85 49.32 54.442091 49.4604508 53.0669776 49.8321031 51.78 50.42 50.33 51.16 49.6 52.03 49.6 53.01 49.6 53.99 50.33 54.87 51.78 55.61 53.815273 56.4973837 56.0204324 56.9274922 58.24 56.87L58.24 56.87C59.2463343 56.8660142 60.2503093 56.7723099 61.24 56.59 62.4337373 56.3912425 63.592418 56.0207342 64.68 55.49 66.34 54.63 66.91 53.64 66.88 53 66.85 52.36 66.32 51.35 64.67 50.48zM35.11 46.68C33.1319465 46.6615297 31.203989 47.3018367 29.63 48.5 28.2984756 49.436329 27.5060911 50.9622195 27.5060911 52.59 27.5060911 54.2177805 28.2984756 55.743671 29.63 56.68 31.2003388 57.8850627 33.1307439 58.5261827 35.11 58.5 37.089158 58.5361503 39.021722 57.89784 40.59 56.69 41.9256701 55.7542261 42.7210324 54.2258548 42.7210324 52.595 42.7210324 50.9641452 41.9256701 49.4357739 40.59 48.5 39.016011 47.3018367 37.0880535 46.6615297 35.11 46.68z"/>
    <path fill="#FD0" fill-rule="nonzero" d="M13.05,44.36 L13.44,43.86 C13.9362947,43.1883394 14.495491,42.565522 15.11,42 C15.437628,41.6955669 15.7356302,41.3607329 16,41 C16.54,40.33 17.05,39.7 17.66,39.7 C17.9206985,39.7089591 18.1693452,39.8119699 18.36,39.99 C19.1623947,40.6759305 20.0415954,41.2665387 20.98,41.75 C21.8006348,42.1920958 22.5774522,42.7110901 23.3,43.3 L23.41,43.41 C23.58,43.58 23.75,43.76 23.89,43.76 L23.89,43.76 C22.8948755,42.1030968 21.695479,40.5778139 20.32,39.22 L20,39 C19.7716044,38.87328 19.5894778,38.6771436 19.48,38.44 C19.3237417,38.2159575 19.2659317,37.9377467 19.32,37.67 C19.3846674,37.277001 19.5909866,36.9212783 19.9,36.67 L19.9,36.67 C20.5954468,36.4260797 21.265315,36.114591 21.9,35.74 L22.61,35.35 C22.4339585,35.1952538 22.2039797,35.1161986 21.97,35.13 L21.66,35.13 L21.36,35.13 L20.84,35.13 L20.32,35.13 C19.8289241,35.0977926 19.3426497,35.2433199 18.95,35.54 L18.77,35.68 L18.68,35.47 L18.55,35.38 L18.31,35.38 C18.1595403,35.3906918 18.0220441,35.2948611 17.98,35.15 C17.63,34.25 17.36,33.33 17.1,32.44 C16.84,31.55 16.65,30.96 16.39,30.26 C16.24,29.85 16.1,29.5 15.95,29.18 C15.79,29.65 15.66,30.12 15.55,30.56 L15.4,31.17 C15.1772223,32.3829966 14.7584084,33.5516224 14.16,34.63 C13.9464728,35.0110511 13.6651984,35.3499359 13.33,35.63 L13.01,35.94 C12.9148668,36.0913107 12.7639858,36.1990828 12.59,36.24 L12.29,36.38 C12.023464,36.6206315 11.7317812,36.83185 11.42,37.01 C11.08,37.21 10.75,37.37 10.42,37.54 L10.01,37.77 C9.69015943,37.921309 9.40177233,38.131662 9.16,38.39 C9.50739779,38.472627 9.86293105,38.5162301 10.22,38.52 C10.7024798,38.5184422 11.1816969,38.4408225 11.64,38.29 L11.89,38.29 L12.15,38.22 C12.4532032,38.0369706 12.7964341,37.930569 13.15,37.91 C13.3663702,37.91 13.5769038,37.9801779 13.75,38.11 L13.75,38.11 L13.75,38.11 C13.9958933,38.505229 14.0259732,38.9977867 13.83,39.42 C13.7507627,39.623052 13.6571936,39.8202154 13.55,40.01 C13.4080854,40.2588365 13.2972565,40.5241544 13.22,40.8 C13.15,41.2 13.08,41.58 13.02,41.95 L12.87,42.84 C12.76,43.5 12.61,44.29 12.39,45.1 L12.39,45.1 L12.79,44.6 L13.05,44.36 Z"/>
    <path fill="#2B2724" fill-rule="nonzero" d="M161.71,79.51 C161.665925,75.2239152 158.163426,71.7808737 153.877215,71.8101819 C149.591003,71.8394901 146.135915,75.3301062 146.150456,79.6163929 C146.164997,83.9026796 149.643689,87.3697734 153.93,87.37 C158.246578,87.3424671 161.726627,83.8266339 161.71,79.51 L161.71,79.51 Z M175.24,79.59 C175.24,90.87 165.75,99.89 153.93,99.89 C142.11,99.89 132.62,90.89 132.62,79.59 C132.62,68.29 142.11,59.06 153.93,59.06 C165.75,59.06 175.24,68.23 175.24,79.59 L175.24,79.59 Z M217.67,71.35 C217.67,63.72 212.38,57.11 204.61,57.11 L193.8,57.11 L193.8,85.89 L204.61,85.89 C212.38,85.89 217.67,78.97 217.67,71.35 L217.67,71.35 Z M232.29,71.35 C232.29,87.6 220.94,98.72 204.92,98.72 L181.74,98.72 C181.223842,98.7254052 180.727249,98.5227492 180.36225,98.1577503 C179.997251,97.7927514 179.794595,97.2961581 179.8,96.78 L179.8,46.15 C179.821882,45.0990117 180.688917,44.263261 181.74,44.28 L204.92,44.28 C220.92,44.28 232.29,55.09 232.29,71.35 L232.29,71.35 Z M254.92,87.45 C258.146003,87.5190863 261.092979,85.6289846 262.375683,82.6681507 C263.658386,79.7073169 263.021679,76.2646782 260.76485,73.9584719 C258.508021,71.6522656 255.079966,70.9412096 252.092069,72.159541 C249.104171,73.3778724 247.15074,76.2832579 247.15,79.51 C247.123328,81.5944897 247.927939,83.6037722 249.38598,85.0937136 C250.844021,86.583655 252.835421,87.4315576 254.92,87.45 L254.92,87.45 Z M252.92,59.06 C257.51,59.06 261.17,60.77 262.8,63.18 L262.8,62 C262.810902,61.01759 263.607544,60.2253977 264.59,60.22 L274.31,60.22 C274.782832,60.2145258 275.237755,60.4006308 275.571177,60.7359365 C275.904599,61.0712422 276.088138,61.5272063 276.08,62 L276.08,96.93 C276.088206,97.4072058 275.902253,97.8672827 275.564768,98.2047681 C275.227283,98.5422535 274.767206,98.7282059 274.29,98.72 L264.57,98.72 C264.092794,98.7282059 263.632717,98.5422535 263.295232,98.2047681 C262.957747,97.8672827 262.771794,97.4072058 262.78,96.93 L262.78,95.77 C261.15,98.18 257.41,99.89 252.78,99.89 C242.99,99.89 233.58,92.03 233.58,79.36 C233.58,66.69 243.06,59.06 252.86,59.06 L252.92,59.06 Z M299.14,87.45 C302.365195,87.5150045 305.30915,85.6222443 306.588682,82.6610104 C307.868215,79.6997764 307.228965,76.2587342 304.971278,73.9546165 C302.713591,71.6504988 299.286273,70.9413426 296.299609,72.1603366 C293.312945,73.3793305 291.360655,76.2841499 291.36,79.51 C291.330637,81.5969979 292.135737,83.6093435 293.596516,85.1001644 C295.057295,86.5909852 297.052837,87.4368783 299.14,87.45 L299.14,87.45 Z M296.8,59.06 C301.55,59.06 305.2,60.85 306.8,62.95 L306.8,46.07 C306.810815,45.0859248 307.605925,44.290815 308.59,44.28 L318.46,44.28 C318.937206,44.2717941 319.397283,44.4577465 319.734768,44.7952319 C320.072253,45.1327173 320.258206,45.5927942 320.25,46.07 L320.25,96.93 C320.258206,97.4072058 320.072253,97.8672827 319.734768,98.2047681 C319.397283,98.5422535 318.937206,98.7282059 318.46,98.72 L308.74,98.72 C308.271452,98.7147438 307.824342,98.522862 307.497733,98.186868 C307.171125,97.850874 306.991983,97.3985093 307,96.93 L307,95.77 C305.06,98.18 301.64,99.89 297.05,99.89 C287.25,99.89 277.84,92.03 277.84,79.36 C277.84,66.69 287.17,59.06 296.84,59.06 L296.8,59.06 Z M343.43,87.45 C346.655195,87.5150045 349.59915,85.6222443 350.878682,82.6610104 C352.158215,79.6997764 351.518965,76.2587342 349.261278,73.9546165 C347.003591,71.6504988 343.576273,70.9413426 340.589609,72.1603366 C337.602945,73.3793305 335.650655,76.2841499 335.65,79.51 C335.623328,81.5962085 336.429306,83.6070019 337.889508,85.0972331 C339.349709,86.5874643 341.343681,87.4342033 343.43,87.45 L343.43,87.45 Z M341.1,59.06 C345.84,59.06 349.5,60.85 351.1,62.95 L351.1,46.07 C351.110815,45.0859248 351.905925,44.290815 352.89,44.28 L362.76,44.28 C363.237206,44.2717941 363.697283,44.4577465 364.034768,44.7952319 C364.372253,45.1327173 364.558206,45.5927942 364.55,46.07 L364.55,96.93 C364.558206,97.4072058 364.372253,97.8672827 364.034768,98.2047681 C363.697283,98.5422535 363.237206,98.7282059 362.76,98.72 L353.04,98.72 C352.562794,98.7282059 352.102717,98.5422535 351.765232,98.2047681 C351.427747,97.8672827 351.241794,97.4072058 351.25,96.93 L351.25,95.77 C349.31,98.18 345.89,99.89 341.3,99.89 C331.5,99.89 322.09,92.03 322.09,79.36 C322.09,66.69 331.42,59.06 341.09,59.06 L341.1,59.06 Z M397.09,104.32 C394.68,112.49 389,117.08 380.14,117.08 C375.595397,117.156072 371.166981,115.642205 367.62,112.8 C367.163452,112.37469 366.884786,111.79235 366.84,111.17 C366.883422,110.574813 367.098817,110.005058 367.46,109.53 L371.12,103.93 C371.481685,103.427011 372.051437,103.114566 372.67,103.08 C373.410055,103.084411 374.122363,103.362211 374.67,103.86 C375.974987,104.856573 377.542333,105.450844 379.18,105.57 C381.108316,105.671869 382.850963,104.427121 383.38,102.57 L384.63,98.68 L378.72,98.68 C377.60701,98.6724192 376.643982,97.9036501 376.39,96.82 L366.51,63.22 C366.336922,62.6922789 366.232727,62.1444137 366.2,61.59 C366.2,60.81 366.74,60.19 367.83,60.19 L379.5,60.19 C380.5,60.19 381.13,61.12 381.36,62.05 L387.82,86.16 L388.28,86.16 L393.5,62.05 C393.73,61.12 394.35,60.19 395.36,60.19 L407.2,60.19 C408.29,60.19 408.84,60.81 408.84,61.59 C408.802089,62.1446 408.694579,62.6922305 408.52,63.22 L397.09,104.32 Z M118.78,91.18 C114.11,97.71 106.34,99.89 99.49,99.89 C83.7,99.89 72,88 72,71.5 C72,55.71 84.6,43.12 101.09,43.12 C113.3,43.12 123.09,48.33 127.53,58.28 C128.07,59.45 128.46,61.28 125.19,61.94 L116.56,63.49 C115.210512,63.7473894 113.840266,63.1573124 113.1,62 C110.393907,58.2648394 106.052342,56.0642692 101.44,56.09 C92.8,56.09 86.66,62.7 86.66,71.57 C86.66,81.37 93.66,87.05 101.2,87.05 C106.26,87.05 110.46,85.05 113.2,81.53 L105.58,81.53 C105.043734,81.5498299 104.523423,81.345491 104.143966,80.9660342 C103.764509,80.5865774 103.56017,80.0662665 103.58,79.53 L103.58,72.28 C103.56017,71.7437335 103.764509,71.2234226 104.143966,70.8439658 C104.523423,70.464509 105.043734,70.2601701 105.58,70.28 L128.83,70.28 C129.357692,70.274183 129.86475,70.484699 130.233154,70.8625495 C130.601559,71.2403999 130.799172,71.7526244 130.78,72.28 L130.78,96.78 C130.782707,97.2970833 130.577807,97.7936268 130.21123,98.1583237 C129.844653,98.5230207 129.347063,98.7253655 128.83,98.72 L120.74,98.72 C120.223842,98.7254052 119.727249,98.5227492 119.36225,98.1577503 C118.997251,97.7927514 118.794595,97.2961581 118.8,96.78 L118.78,91.18 Z M408.87,50.69 L409.06,50.5 L413.82,50.5 L414.01,50.69 L414.01,51.44 L413.82,51.63 L412.08,51.63 L412.08,56.32 L411.89,56.52 L411,56.52 L410.81,56.32 L410.81,51.63 L409.07,51.63 L408.88,51.44 L408.87,50.69 Z M417.87,53.69 L419.21,50.69 L419.48,50.51 L420.91,50.51 L421.1,50.7 L421.1,56.35 L420.92,56.54 L420.07,56.54 L419.88,56.35 L419.88,52.07 L418.48,55.17 C418.450221,55.2964716 418.328526,55.3790502 418.2,55.36 L417.51,55.36 C417.383814,55.3784608 417.265225,55.2950096 417.24,55.17 L415.84,52.07 L415.84,56.33 L415.66,56.52 L414.8,56.52 L414.62,56.33 L414.62,50.68 L414.81,50.49 L416.27,50.49 L416.55,50.67 L417.87,53.69 Z"/>
  </g>
</svg>
