<svg xmlns="http://www.w3.org/2000/svg" viewBox="0 0 840 156">
  <g fill="none">
    <path fill="#545454" d="M800.5 39C778.7195 39 761 56.7209981 761 78.5 761 100.279002 778.7195 118 800.5 118 822.2805 118 840 100.279002 840 78.5 840 56.7209981 822.2805 39 800.5 39M800.5 102.199401C787.4317 102.199401 776.800599 91.5682999 776.800599 78.5 776.800599 65.4317001 787.4317 54.8005992 800.5 54.8005992 813.5683 54.8005992 824.199401 65.4317001 824.199401 78.5 824.199401 91.5682999 813.5683 102.199401 800.5 102.199401M383.200599 78.500749C383.200599 91.5688011 372.567799 102.1997 359.500749 102.1997 346.432201 102.1997 335.799401 91.5688011 335.799401 78.4977531L335.799401 39 320 39 320 78.500749C320 100.279338 337.719836 118 359.500749 118 381.280164 118 399 100.279338 399 78.4977531L399 39 383.200599 39 383.200599 78.500749" />
    <polyline fill="#545454" points="610.2 91.029 558.175 39 547 39 547 50.169 547.001 50.172 547.001 118 562.8 118 562.8 65.971 614.825 118 626 118 626 39 610.2 39 610.2 91.029" />
    <path fill="#545454" d="M462.397399 39L434 118 450.628026 118 456.307206 102.199401 490.716795 102.199401 496.377974 118 513 118 484.694104 39 462.397399 39zM461.986386 86.4002996L473.539751 54.2613296 485.055616 86.4002996 461.986386 86.4002996zM274.181414 78.5C274.181414 56.7209981 256.645188 39 235.089966 39 213.534743 39 196 56.7209981 196 78.5 196 100.279002 213.534743 118 235.089966 118L277.810519 118 282 102.199401 266.342073 102.199401C271.260933 95.5918503 274.181414 87.3859646 274.181414 78.5M235.089966 102.199401C222.156832 102.199401 211.63569 91.5682999 211.63569 78.5 211.63569 65.4317001 222.156832 54.8005992 235.089966 54.8005992 248.023099 54.8005992 258.545724 65.4317001 258.545724 78.5 258.545724 91.5682999 248.023099 102.199401 235.089966 102.199401" />
    <polyline fill="#545454" points="661 54.801 692.591 54.801 692.591 118 708.387 118 708.387 54.801 735.766 54.801 740 39 661 39 661 54.801" />
    <polyline fill="#4563D9" points="0 0 0 117 78 117 78 78 39 78 39 39 78 39 78 78 117 78 117 0 0 0" />
    <polygon fill="#4563D9" points="79 156 118 156 118 117 79 117" />
  </g>
</svg>