<svg xmlns="http://www.w3.org/2000/svg" width="568" height="100" viewBox="0 0 568 100">
  <g>
    <polygon points="0 13.96 0 25.76 18 25.76 18 83.3 31.9 83.3 31.9 25.76 49.9 25.76 49.9 13.96"/>
    <g transform="translate(55)">
      <path d="M13.32 38.58C17.5 35.11 22.66 32.35 28.19 32.35 33.72 32.35 41.28 35.64 41.28 47.96L41.28 83.3 28.1 83.3 28.1 53.3C28.1 49.3 28.37 42.96 22.66 42.96 18.84 42.96 15.81 45.73 13.32 48.4L13.32 83.3.13 83.3.13 13.96 13.32 13.96 13.32 38.58zM77 58.35C77 52.12 75.76 42.05 68.62 42.05 61.48 42.05 60.26 52.12 60.26 58.35 60.26 64.58 61.5 74.66 68.62 74.66 75.74 74.66 77 64.59 77 58.35M46.71 58.35C46.71 45.08 54.03 32.35 68.62 32.35 83.21 32.35 90.54 45.08 90.54 58.35 90.54 71.62 83.15 84.35 68.62 84.35 54.09 84.35 46.71 71.52 46.71 58.35M124.3 78.14C120.12 81.61 114.95 84.37 109.42 84.37 103.89 84.37 96.33 81.07 96.33 68.78L96.33 33.41 109.51 33.41 109.51 63.41C109.51 67.41 109.24 73.75 114.95 73.75 118.78 73.75 121.8 70.99 124.3 68.31L124.3 33.41 137.49 33.41 137.49 83.3 124.3 83.3 124.3 78.14z"/>
      <path d="M21.94,27.54 C27.47,27.54 29.06,23 29.06,18.28 C29.06,13.73 26.93,9.9 21.94,9.9 C16.42,9.9 14.73,14.53 14.73,19.25 C14.73,23.8 16.86,27.54 21.94,27.54 Z M12.85,52.38 C11.61,53.19 10.85,53.9 10.85,55.51 C10.85,60.14 20.19,60.41 23.31,60.41 C25.54,60.41 37.12,60.14 37.12,56.13 C37.12,53.54 35.34,53.82 27.51,53.37 L12.85,52.38 Z M17,35.96 C15.48,35.96 13.26,36.77 13.26,39.08 C13.26,45.58 47.83,34.27 47.83,53.78 C47.83,61.17 42.83,69.01 23.06,69.01 C5.91,68.96 0,62.9 0,56.4 C0,52.57 2.41,50.61 5.44,48.82 C3.29,47.22 1.52,45.35 1.52,42.51 C1.52,37.6 4.19,35.02 8.02,32.51 C4.37,28.95 1.79,24.51 1.79,18.8 C1.79,7.75 11.14,1.34 21.92,1.34 C26.2548678,1.36551434 30.5018927,2.56463368 34.21,4.81 C36.88,2.31 39.28,0.71 43.21,0.71 C44.4955286,0.700801521 45.7787018,0.8214131 47.04,1.07 L47.04,10.34 C45.7233183,9.72226301 44.3016511,9.35921198 42.85,9.27 C41.5881291,9.31581294 40.3590439,9.68419423 39.28,10.34 C40.8212678,12.9187172 41.7517035,15.8160665 42,18.81 C42,29.81 32.73,36.27 22,36.27 L17,35.96 Z" transform="translate(142 31)"/>
      <path d="M207.94 38.58C212.12 35.11 217.3 32.35 222.82 32.35 228.34 32.35 235.91 35.64 235.91 47.96L235.91 83.3 222.73 83.3 222.73 53.3C222.73 49.3 223 42.96 217.3 42.96 213.46 42.96 210.44 45.73 207.94 48.4L207.94 83.3 194.76 83.3 194.76 13.96 207.94 13.96 207.94 38.58zM259.88 33.42L270.12 33.42 270.12 44.37 259.88 44.37 259.88 69.76C259.88 72.16 260.58 74.65 264.88 74.65 266.776167 74.5750334 268.605724 73.9303324 270.13 72.8L270.13 82.86C267.394453 83.7563342 264.546722 84.2646171 261.67 84.37 253.47 84.37 246.67 79.74 246.67 68.87L246.67 44.37 240.52 44.37 240.52 33.42 246.67 33.42 246.67 20.96 259.86 20.96 259.88 33.42z"/>
      <polygon points="325 83.3 317.89 83.3 306.1 26.64 305.93 26.64 293.55 83.3 286.42 83.3 271.9 13.96 278.84 13.96 290.25 69.96 290.43 69.96 302.9 13.96 309.76 13.96 321.6 69.96 321.79 69.96 334 13.96 340.85 13.96"/>
      <path d="M370.23 58.71C370.23 50.34 368.23 38.58 357.5 38.58 346.77 38.58 344.76 50.34 344.76 58.71 344.76 67.08 346.81 78.85 357.5 78.85 368.19 78.85 370.23 67.08 370.23 58.71M337.81 58.71C337.81 40.28 346.54 32.71 357.5 32.71 368.46 32.71 377.18 40.29 377.18 58.71 377.18 77.13 368.45 84.71 357.5 84.71 346.55 84.71 337.81 77.13 337.81 58.71M389.57 44.73L389.75 44.73C392.51 38.85 396.07 33.42 403.37 33.42L406 33.42 406 39.74C396.92 38.49 392.21 48.3 389.53 55.41L389.53 83.3 382.59 83.3 382.59 34.13 389.53 34.13 389.57 44.73z"/>
      <polygon points="418.6 56.96 436.86 34.15 444.62 34.15 431.08 50.96 446.67 83.29 439.18 83.29 426.62 56.58 418.62 66.47 418.62 83.3 411.69 83.3 411.69 13.96 418.62 13.96"/>
      <path d="M476.77,45.08 C474.02,40.98 470.77,38.58 465.54,38.58 C461,38.58 456.73,40.9 456.73,45.88 C456.73,57.88 482.65,52.65 482.65,69.22 C482.65,78.85 475.78,84.72 466.53,84.72 C458.6,84.72 452.19,81.25 448.18,74.39 L453.7,70.96 C456.38,76.03 460.7,78.89 466.53,78.89 C471.61,78.89 476.16,76.12 476.16,70.51 C476.16,58.13 450.22,64.01 450.22,46.37 C450.22,37.91 457.22,32.74 465.28,32.74 C471.863679,32.5337056 478.077512,35.7790025 481.67,41.3 L476.77,45.08 Z"/>
      <path d="M14.16,12.76 C14.682793,12.7630967 15.1934026,12.6022197 15.62,12.3 C16.0975308,11.9046887 16.3453222,11.2964736 16.28,10.68 C16.349029,10.0799821 16.1432111,9.48090477 15.72,9.05 C15.269387,8.7197758 14.7176893,8.55709572 14.16,8.59 L10.16,8.59 L10.16,12.76 L14.16,12.76 Z M15.94,19.87 L13.48,15.12 L10.16,15.12 L10.16,19.84 L7.6,19.84 L7.6,6.23 L14.13,6.23 C15.3831706,6.16661424 16.6111774,6.59749383 17.55,7.43 C18.4131846,8.28477918 18.8714278,9.46675574 18.81,10.68 C18.833249,11.5936587 18.5634154,12.4907677 18.04,13.24 C17.5391341,13.962097 16.8262709,14.5107222 16,14.81 L18.91,19.87 L15.94,19.87 Z M21.75,9.43 C21.2494622,8.24025231 20.5303832,7.15485014 19.63,6.23 C18.7355622,5.3130336 17.6683609,4.58230665 16.49,4.08 C14.020973,3.02671634 11.229027,3.02671634 8.76,4.08 C7.58163907,4.58230665 6.51443785,5.3130336 5.62,6.23 C4.71961679,7.15485014 4.00053785,8.24025231 3.5,9.43 C2.96834653,10.6644397 2.69931355,11.9959827 2.71,13.34 C2.70122007,14.6935293 2.97009126,16.0344818 3.5,17.28 C3.99795927,18.4740934 4.71726695,19.5632338 5.62,20.49 C6.51443785,21.4069664 7.58163907,22.1376934 8.76,22.64 C11.229027,23.6932837 14.020973,23.6932837 16.49,22.64 C17.6683609,22.1376934 18.7355622,21.4069664 19.63,20.49 C20.5327331,19.5632338 21.2520407,18.4740934 21.75,17.28 C22.2799087,16.0344818 22.5487799,14.6935293 22.54,13.34 C22.5506865,11.9959827 22.2816535,10.6644397 21.75,9.43 L21.75,9.43 Z M24,18.16 C23.3732796,19.6288291 22.4741092,20.965709 21.35,22.1 C20.2179612,23.2243318 18.8803626,24.1205908 17.41,24.74 C14.3295785,26.0470423 10.8504215,26.0470423 7.77,24.74 C6.30402307,24.1179486 4.97017953,23.2219316 3.84,22.1 C2.71589083,20.965709 1.81672036,19.6288291 1.19,18.16 C0.527163883,16.6397012 0.186667372,14.9985081 0.19,13.34 C0.185649176,11.6878419 0.526247516,10.0529699 1.19,8.54 C2.45927472,5.5742398 4.82849671,3.21577071 7.8,1.96 C10.8804215,0.652957742 14.3595785,0.652957742 17.44,1.96 C18.9108208,2.58304888 20.2483585,3.48266183 21.38,4.61 C22.4926945,5.74359044 23.3815682,7.07690109 24,8.54 C24.6637525,10.0529699 25.0043508,11.6878419 25,13.34 C25.0033326,14.9985081 24.6628361,16.6397012 24,18.16 Z" transform="translate(488)"/>
    </g>
  </g>
</svg>
