<svg xmlns="http://www.w3.org/2000/svg" width="191" height="150" viewBox="0 0 191 150">
  <defs>
    <linearGradient id="garbin-a" x1="50.002%" x2="50.002%" y1="18.048%" y2="132.197%">
      <stop offset="39%" stop-color="#0E859F"/>
      <stop offset="47%" stop-color="#16889D"/>
      <stop offset="58%" stop-color="#2C9197"/>
      <stop offset="73%" stop-color="#50A08E"/>
      <stop offset="89%" stop-color="#82B481"/>
      <stop offset="100%" stop-color="#A6C377"/>
    </linearGradient>
  </defs>
  <g fill="none" fill-rule="evenodd" transform="translate(0 -1)">
    <circle cx="55.09" cy="135" r="15.11" fill="#612D8F" fill-rule="nonzero"/>
    <path fill="#FFF" fill-rule="nonzero" d="M61.78,142.43 C61.6477984,142.877117 61.2458499,143.190637 60.78,143.21 L49.43,143.21 C48.9641501,143.190637 48.5622016,142.877117 48.43,142.43 L45.54,132.11 L48.54,132.11 L54.89,125.45 C54.9393965,125.390534 55.0126937,125.356132 55.09,125.356132 C55.1673063,125.356132 55.2406035,125.390534 55.29,125.45 C55.4034641,125.578543 55.4034641,125.771457 55.29,125.9 L49.32,132.11 L61.62,132.11 L56.48,123.9 C56.3892113,123.753254 56.4189254,123.562234 56.55,123.45 C56.6092352,123.397743 56.6890148,123.375248 56.7668237,123.388865 C56.8446326,123.402481 56.9120317,123.450732 56.95,123.52 L62.31,132.11 L64.66,132.11 L61.78,142.43 Z"/>
    <polygon fill="#612D8F" fill-rule="nonzero" points="56.22 135.67 55.99 140.49 57.41 140.49 58.01 135.67"/>
    <polygon fill="#612D8F" fill-rule="nonzero" points="48.9 135.67 50.17 140.49 51.59 140.49 50.69 135.67"/>
    <polygon fill="#612D8F" fill-rule="nonzero" points="52.56 135.67 53.08 140.49 54.5 140.49 54.35 135.67"/>
    <polygon fill="#612D8F" fill-rule="nonzero" points="59.88 135.67 58.9 140.49 60.32 140.49 61.67 135.67"/>
    <circle cx="15.11" cy="135" r="15.11" fill="#DE5353" fill-rule="nonzero"/>
    <rect width="5.2" height="2.84" x="12.51" y="139.41" fill="#FFF" fill-rule="nonzero" rx=".89"/>
    <rect width="16.06" height="1.3" x="7.08" y="141.42" fill="#FFF" fill-rule="nonzero" rx=".41"/>
    <path fill="#FFF" fill-rule="nonzero" d="M24.21,128.59 C24.21,127.999055 23.7309447,127.52 23.14,127.52 L7.14,127.52 C6.54905532,127.52 6.07,127.999055 6.07,128.59 L6.07,138.48 C6.07,139.070945 6.54905532,139.55 7.14,139.55 L23.14,139.55 C23.7309447,139.55 24.21,139.070945 24.21,138.48 L24.21,128.59 Z M23.35,137.69 C23.35,138.280945 22.8709447,138.76 22.28,138.76 L8.17,138.76 C7.57905532,138.76 7.1,138.280945 7.1,137.69 L7.1,129.51 C7.1,128.919055 7.57905532,128.44 8.17,128.44 L22.28,128.44 C22.8709447,128.44 23.35,128.919055 23.35,129.51 L23.35,137.69 Z"/>
    <circle cx="135.05" cy="135" r="15.11" fill="#6BBEA5" fill-rule="nonzero"/>
    <path stroke="#6BBEA5" stroke-linecap="round" stroke-linejoin="round" stroke-width="2" d="M125.94,129.25 L144.17,129.25 L144.17,135 C144.17,138.159069 141.609069,140.72 138.45,140.72 L131.65,140.72 C128.495003,140.698433 125.93807,138.154841 125.9,135 L125.9,129.32 L125.94,129.25 Z"/>
    <path fill="#FFF" fill-rule="nonzero" d="M125.9 129.24L134.58 135.66C134.875923 135.88334 135.284077 135.88334 135.58 135.66L144.26 129.26 125.9 129.24zM132.06 134.54L126.06 140.18C125.958135 140.014409 125.902858 139.824393 125.9 139.63L125.9 129.97 132.06 134.54z"/>
    <path fill="#FFF" fill-rule="nonzero" d="M137.48 134.94L143.56 140.62C143.382573 140.706725 143.187485 140.751219 142.99 140.75L127.11 140.75C126.930879 140.750121 126.753727 140.712647 126.59 140.64L132.66 134.96 135.05 136.73 137.48 134.94zM144.25 129.96L144.25 139.62C144.242857 139.799774 144.191324 139.974985 144.1 140.13L138.1 134.51 144.25 129.96z"/>
    <circle cx="95.07" cy="135" r="15.11" fill="#5F89FB" fill-rule="nonzero"/>
    <rect width="10.1" height="18.72" x="90.02" y="125.64" fill="#FFF" fill-rule="nonzero" rx="3.18"/>
    <rect width="8.76" height="13.08" x="90.68" y="128.42" fill="#5F89FB" fill-rule="nonzero"/>
    <rect width="2.29" height="1" x="93.94" y="142.5" fill="#5F89FB" fill-rule="nonzero" rx=".26"/>
    <rect width="2.29" height="1" x="93.94" y="126.61" fill="#5F89FB" fill-rule="nonzero" rx=".26"/>
    <circle cx="175.03" cy="135" r="15.11" fill="#DF922F" fill-rule="nonzero"/>
    <circle cx="175.08" cy="135.53" r="8.39" fill="#FFF" fill-rule="nonzero"/>
    <circle cx="175.08" cy="135.53" r="5.9" fill="#CD9935" fill-rule="nonzero"/>
    <circle cx="175.08" cy="135.53" r="4.16" fill="#FFF" fill-rule="nonzero"/>
    <circle cx="175.08" cy="135.53" r="1.99" fill="#CD9935" fill-rule="nonzero"/>
    <path fill="#FFF" fill-rule="nonzero" d="M187.96,130.65 L186.88,129.91 C186.938868,129.665857 186.833921,129.411563 186.62,129.28 L186.75,127.94 C186.75,127.76 186.64,127.67 186.48,127.75 L183.67,129.03 C183.485195,129.126626 183.350539,129.297676 183.3,129.5 L183.03,130.9 L175.41,135.11 C175.12,135.26 174.84,135.28 174.98,135.57 C175.12,135.86 175.31,135.64 175.6,135.5 L183.37,131.85 L184.44,132.49 C184.626424,132.579762 184.843576,132.579762 185.03,132.49 L187.94,131.02 C188.042173,131.025523 188.129477,130.947173 188.135,130.845 C188.140523,130.742827 188.062173,130.655523 187.96,130.65 L187.96,130.65 Z"/>
    <path fill="#A7A6AB" fill-rule="nonzero" d="M4.75 97.54L2.54 97.54C2.53682866 97.4833777 2.53682866 97.4266223 2.54 97.37 2.54 97.3 2.54 97.24 2.54 97.18 2.54 97.12 2.54 97.06 2.54 96.99 2.53686991 96.9333766 2.53686991 96.8766234 2.54 96.82L7.8 96.82C7.8 96.82 7.8 96.92 7.8 96.98 7.8 97.04 7.8 97.1 7.8 97.16 7.8 97.22 7.8 97.28 7.8 97.35 7.8031787 97.4099579 7.8031787 97.4700421 7.8 97.53L5.54 97.53 5.54 105.11 5.36 105.11 4.93 105.11 4.75 105.11 4.75 97.54zM10.34 96.83L14.79 96.83C14.79 96.83 14.79 96.93 14.79 97 14.79 97.07 14.79 97.13 14.79 97.19 14.79 97.25 14.79 97.31 14.79 97.38 14.79 97.45 14.79 97.51 14.79 97.56L11.14 97.56 11.14 100.37 14.08 100.37C14.082939 100.426629 14.082939 100.483371 14.08 100.54 14.08 100.61 14.08 100.67 14.08 100.73 14.08 100.79 14.08 100.85 14.08 100.92 14.0832359 100.979956 14.0832359 101.040044 14.08 101.1L11.14 101.1 11.14 104.42 14.9 104.42C14.902939 104.476629 14.902939 104.533371 14.9 104.59 14.9 104.66 14.9 104.72 14.9 104.78 14.9 104.84 14.9 104.9 14.9 104.97 14.9032359 105.029956 14.9032359 105.090044 14.9 105.15L10.34 105.15 10.34 96.83zM22.92 104.2C22.98 104.313333 23.0333333 104.426667 23.08 104.54 23.1252986 104.649466 23.1588206 104.763441 23.18 104.88 22.8817845 105.024522 22.5656836 105.128768 22.24 105.19 21.864598 105.264448 21.4827107 105.301297 21.1 105.3 20.5735532 105.305194 20.0509258 105.210171 19.56 105.02 19.1043438 104.843357 18.6942313 104.566531 18.36 104.21 18.0145133 103.828201 17.7522846 103.378666 17.59 102.89 17.3954072 102.310186 17.300727 101.701527 17.31 101.09 17.299339 100.459511 17.3905114 99.8314347 17.58 99.23 17.739345 98.7241664 17.9976883 98.2550694 18.34 97.85 18.6653898 97.4757844 19.0725751 97.181516 19.53 96.99 20.0278199 96.7853912 20.5618129 96.6833543 21.1 96.69 21.5056902 96.6819173 21.911141 96.7154257 22.31 96.79 22.6366667 96.8566667 22.8733333 96.9133333 23.02 96.96 23.0098234 97.0781393 22.989753 97.1952166 22.96 97.31 22.926114 97.4253994 22.8860563 97.5388961 22.84 97.65L22.53 97.56 22.18 97.48 21.72 97.42 21.11 97.42C20.6867253 97.413188 20.2670307 97.4984917 19.88 97.67 19.5177445 97.8336114 19.199136 98.080276 18.95 98.39 18.6808984 98.7353384 18.480606 99.1291336 18.36 99.55 18.2138696 100.053467 18.143102 100.5758 18.15 101.1 18.1390112 101.625921 18.2167675 102.149931 18.38 102.65 18.5135014 103.054662 18.7316767 103.426242 19.02 103.74 19.2983353 104.029042 19.6409544 104.248318 20.02 104.38 20.4004806 104.522206 20.8038269 104.593385 21.21 104.59 21.5460736 104.595323 21.8816355 104.561767 22.21 104.49 22.4580991 104.424108 22.6967152 104.326645 22.92 104.2L22.92 104.2z"/>
    <polygon fill="#A7A6AB" fill-rule="nonzero" points="26.05 96.83 26.26 96.83 26.71 96.83 26.92 96.83 30.92 103.83 30.92 96.83 31.1 96.83 31.51 96.83 31.7 96.83 31.7 105.11 31.5 105.11 31.04 105.11 30.83 105.11 26.83 98.21 26.83 105.11 26.65 105.11 26.23 105.11 26.06 105.11"/>
    <path fill="#A7A6AB" fill-rule="nonzero" d="M38.17 105.28C37.6454289 105.29205 37.1251867 105.182526 36.65 104.96 36.2160105 104.771781 35.8348581 104.479908 35.54 104.11 35.2426445 103.701181 35.0254779 103.239702 34.9 102.75 34.6146919 101.617696 34.6146919 100.432304 34.9 99.3 35.0266056 98.8107042 35.2436765 98.3494285 35.54 97.94 35.8191359 97.5608773 36.1863778 97.2554144 36.61 97.05 37.5669417 96.6349901 38.6530583 96.6349901 39.61 97.05 40.0336222 97.2554144 40.4008641 97.5608773 40.68 97.94 40.9761202 98.3495485 41.1931724 98.8107844 41.32 99.3 41.6053081 100.432304 41.6053081 101.617696 41.32 102.75 41.1931724 103.239216 40.9761202 103.700451 40.68 104.11 40.4011594 104.489401 40.033842 104.794927 39.61 105 39.1561896 105.197316 38.6646831 105.292886 38.17 105.28L38.17 105.28zM38.17 104.55C38.57227 104.56113 38.9709656 104.471767 39.33 104.29 39.6553013 104.116092 39.933322 103.865531 40.14 103.56 40.3678406 103.215901 40.53054 102.83288 40.62 102.43 40.8280122 101.477896 40.8280122 100.492104 40.62 99.54 40.5318664 99.1366964 40.3690665 98.7534383 40.14 98.41 39.9327167 98.1049965 39.6548397 97.8545641 39.33 97.68 38.9709656 97.4982327 38.57227 97.4088699 38.17 97.42 37.767852 97.4101213 37.3694582 97.4994165 37.01 97.68 36.6835096 97.8522092 36.405112 98.1031107 36.2 98.41 35.9756782 98.7548237 35.8163853 99.1378045 35.73 99.54 35.5219878 100.492104 35.5219878 101.477896 35.73 102.43 35.8176579 102.831797 35.9768582 103.214555 36.2 103.56 36.4044635 103.86745 36.6830194 104.118494 37.01 104.29 37.3694582 104.470584 37.767852 104.559879 38.17 104.55L38.17 104.55zM44.67 96.83L44.85 96.83 45.28 96.83 45.46 96.83 45.46 104.42 49.01 104.42C49.01 104.42 49.01 104.53 49.01 104.6 49.01 104.67 49.01 104.74 49.01 104.79 49.01 104.84 49.01 104.92 49.01 104.98 49.01 105.04 49.01 105.1 49.01 105.15L44.67 105.15 44.67 96.83zM54.23 105.28C53.7054289 105.29205 53.1851867 105.182526 52.71 104.96 52.286158 104.754927 51.9188406 104.449401 51.64 104.07 51.3426445 103.661181 51.1254779 103.199702 51 102.71 50.7146919 101.577696 50.7146919 100.392304 51 99.26 51.1266056 98.7707042 51.3436765 98.3094285 51.64 97.9 51.9191359 97.5208773 52.2863778 97.2154144 52.71 97.01 53.6669417 96.5949901 54.7530583 96.5949901 55.71 97.01 56.1336222 97.2154144 56.5008641 97.5208773 56.78 97.9 57.0761202 98.3095485 57.2931724 98.7707844 57.42 99.26 57.7053081 100.392304 57.7053081 101.577696 57.42 102.71 57.2931724 103.199216 57.0761202 103.660451 56.78 104.07 56.5011594 104.449401 56.133842 104.754927 55.71 104.96 55.2471035 105.176889 54.7411503 105.286285 54.23 105.28zM54.23 104.55C54.63227 104.56113 55.0309656 104.471767 55.39 104.29 55.7153013 104.116092 55.993322 103.865531 56.2 103.56 56.4278406 103.215901 56.59054 102.83288 56.68 102.43 56.8880122 101.477896 56.8880122 100.492104 56.68 99.54 56.5918664 99.1366964 56.4290665 98.7534383 56.2 98.41 55.9927167 98.1049965 55.7148397 97.8545641 55.39 97.68 55.0309656 97.4982327 54.63227 97.4088699 54.23 97.42 53.827852 97.4101213 53.4294582 97.4994165 53.07 97.68 52.7435096 97.8522092 52.465112 98.1031107 52.26 98.41 52.0356782 98.7548237 51.8763853 99.1378045 51.79 99.54 51.5819878 100.492104 51.5819878 101.477896 51.79 102.43 51.8776579 102.831797 52.0368582 103.214555 52.26 103.56 52.4644635 103.86745 52.7430194 104.118494 53.07 104.29 53.4294582 104.470584 53.827852 104.559879 54.23 104.55L54.23 104.55zM65.73 100.85L65.93 100.85 66.35 100.85 66.53 100.85 66.53 104.85C66.3804392 104.924662 66.222717 104.981711 66.06 105.02 65.868813 105.069751 65.6752325 105.109802 65.48 105.14L64.85 105.21 64.21 105.21C63.6813619 105.213204 63.156418 105.121763 62.66 104.94 62.1918862 104.769732 61.7680854 104.496312 61.42 104.14 61.0567888 103.762633 60.7773596 103.31282 60.6 102.82 60.3909483 102.232957 60.2893265 101.613064 60.3 100.99 60.2896533 100.357982 60.3877409 99.7288693 60.59 99.13 60.7613128 98.6209553 61.0333883 98.151625 61.39 97.75 61.7259356 97.3786861 62.1388828 97.0851864 62.6 96.89 63.0812653 96.6885656 63.5982912 96.586521 64.12 96.59 64.5256164 96.584175 64.9308431 96.6176648 65.33 96.69 65.6566667 96.7566667 65.92 96.82 66.12 96.88 66.1089051 97.0013154 66.0888503 97.1216438 66.06 97.24 66.0272394 97.3590246 65.9871632 97.4759135 65.94 97.59 65.7171523 97.5137181 65.4901128 97.4502806 65.26 97.4 64.9014211 97.3268776 64.5358981 97.2933434 64.17 97.3 63.7535116 97.2966839 63.3410716 97.3818988 62.96 97.55 62.5749058 97.7084198 62.2323827 97.9550364 61.96 98.27 61.6812706 98.6136043 61.4708241 99.0073429 61.34 99.43 61.1813562 99.9311393 61.103713 100.454387 61.11 100.98 61.0983597 101.503483 61.179617 102.024884 61.35 102.52 61.4906902 102.92284 61.7156972 103.291034 62.01 103.6 62.2899684 103.887044 62.6320849 104.105998 63.01 104.24 63.394152 104.381463 63.8006374 104.452598 64.21 104.45 64.4997736 104.466206 64.7902264 104.466206 65.08 104.45 65.2877276 104.430737 65.492468 104.387104 65.69 104.32L65.73 100.85z"/>
    <polygon fill="#A7A6AB" fill-rule="nonzero" points="69.87 96.83 70.07 96.83 70.49 96.83 70.67 96.83 70.67 105.11 70.49 105.11 70.06 105.11 69.88 105.11"/>
    <path fill="#A7A6AB" fill-rule="nonzero" d="M76,96.83 L76.22,96.83 L76.73,96.83 L76.94,96.83 L79.72,105.11 L79.52,105.11 L79.06,105.11 L78.86,105.11 L78.17,102.99 L74.75,102.99 L74.09,105.11 L73.88,105.11 L73.42,105.11 L73.23,105.11 L76,96.83 Z M77.94,102.29 L76.45,97.66 L74.98,102.29 L77.94,102.29 Z"/>
    <path fill="url(#garbin-a)" fill-rule="nonzero" d="M100.99,63.68 C101.224223,63.6459858 101.460758,63.7245267 101.628116,63.8918844 C101.795473,64.059242 101.874014,64.2957775 101.84,64.53 L101.84,69.53 C101.874014,69.7642225 101.795473,70.000758 101.628116,70.1681156 C101.460758,70.3354733 101.224223,70.4140142 100.99,70.38 L82.62,70.38 C79.4,70.38 83.27,70.38 83.27,71.53 L83.27,88.53 C83.2948952,88.8020885 83.1975645,89.0711659 83.0043652,89.2643652 C82.8111659,89.4575645 82.5420885,89.5548952 82.27,89.53 L77.6,89.53 C76.8733333,89.53 76.51,89.1966667 76.51,88.53 L76.51,73.28 C76.51,67.05 79.83,63.69 87.76,63.69 L100.99,63.68 Z M111.54,56.36 C112.092285,56.36 112.54,56.8077153 112.54,57.36 L112.54,63.64 L128.08,63.64 C129.875205,63.6054238 131.668061,63.7867237 133.42,64.18 C134.697266,64.4573038 135.888067,65.0406929 136.89,65.88 C137.779736,66.6870201 138.427241,67.7257979 138.76,68.88 C139.167027,70.3000567 139.359157,71.7730497 139.33,73.25 L139.33,80.11 C139.359157,81.5869503 139.167027,83.0599433 138.76,84.48 C138.427241,85.6342021 137.779736,86.6729799 136.89,87.48 C135.890279,88.3186763 134.697928,88.8959529 133.42,89.16 C131.665906,89.5380251 129.874071,89.712511 128.08,89.68 L117.08,89.68 C115.279227,89.7147737 113.480508,89.5402712 111.72,89.16 C110.448728,88.8940273 109.263313,88.3167815 108.27,87.48 C107.380264,86.6729799 106.732759,85.6342021 106.4,84.48 C105.992973,83.0599433 105.800843,81.5869503 105.83,80.11 L105.83,57.4 C105.83,56.7333333 106.193333,56.4 106.92,56.4 L111.54,56.36 Z M109.72,70.36 L111.8,70.95 C112.248766,71.0775592 112.561369,71.483537 112.57,71.95 L112.57,77.7 C112.554293,78.5397631 112.634818,79.3785622 112.81,80.2 C112.932783,80.7941672 113.220431,81.3417394 113.64,81.78 C114.080773,82.2000877 114.626554,82.4937045 115.22,82.63 C116.039274,82.8203216 116.879096,82.907663 117.72,82.89 L127.44,82.89 C128.297486,82.9092243 129.15404,82.8218894 129.99,82.63 C130.583097,82.4927794 131.128647,82.1992873 131.57,81.78 C131.988689,81.3411071 132.276198,80.7938016 132.4,80.2 C132.574407,79.3784429 132.654923,78.5397327 132.64,77.7 L132.64,75.55 C132.652737,74.7169698 132.572237,73.8851295 132.4,73.07 C132.280976,72.4657031 131.993199,71.9074862 131.57,71.46 C131.128647,71.0407127 130.583097,70.7472206 129.99,70.61 C129.15404,70.4181106 128.297486,70.3307757 127.44,70.35 L109.72,70.36 Z M149.54,54.11 C149.812089,54.0851048 150.081166,54.1824355 150.274365,54.3756348 C150.467565,54.5688341 150.564895,54.8379115 150.54,55.11 L150.54,59.6 C150.54,60.32 150.19,60.69 149.54,60.69 L144.94,60.69 C144.64317,60.7181682 144.349254,60.6124126 144.138421,60.4015793 C143.927587,60.190746 143.821832,59.8968298 143.85,59.6 L143.85,55.11 C143.85,54.4433333 144.213333,54.11 144.94,54.11 L149.54,54.11 Z M149.54,63.7 C150.23,63.7 150.54,64.06 150.54,64.79 L150.54,88.61 C150.564895,88.8820885 150.467565,89.1511659 150.274365,89.3443652 C150.081166,89.5375645 149.812089,89.6348952 149.54,89.61 L144.94,89.61 C144.667911,89.6348952 144.398834,89.5375645 144.205635,89.3443652 C144.012435,89.1511659 143.915105,88.8820885 143.94,88.61 L143.94,64.77 C143.94,64.0433333 144.273333,63.68 144.94,63.68 L149.54,63.7 Z M177.71,63.7 C182.71,63.7 187.84,66.25 187.84,73.29 L187.84,88.6 C187.864895,88.8720885 187.767565,89.1411659 187.574365,89.3343652 C187.381166,89.5275645 187.112089,89.6248952 186.84,89.6 L182.21,89.6 C181.937911,89.6248952 181.668834,89.5275645 181.475635,89.3343652 C181.282435,89.1411659 181.185105,88.8720885 181.21,88.6 L181.21,75.6 C181.21,72.87 180.21,70.4 176.71,70.4 L162.54,70.4 C157.95,70.4 161.83,70.51 161.83,71.61 L161.83,88.61 C161.854895,88.8820885 161.757565,89.1511659 161.564365,89.3443652 C161.371166,89.5375645 161.102089,89.6348952 160.83,89.61 L156.2,89.61 C155.473333,89.61 155.11,89.2766667 155.11,88.61 L155.11,73.28 C155.11,66.81 159.64,63.69 164.11,63.69 L177.71,63.7 Z M61.3,63.76 L50.92,63.76 C50.450558,63.76 50.07,64.140558 50.07,64.61 L50.07,69.55 C50.07,70.019442 50.450558,70.4 50.92,70.4 L61.92,70.4 C65.98,70.4 65.81,73.08 65.79,73.31 L48.54,73.31 C44.4918318,73.4342007 41.2734953,76.7499284 41.27,80.8 L41.27,82.3 C41.2644051,86.3658368 44.5442524,89.6724948 48.61,89.7 L67.29,89.7 C70.59,89.7 72.57,87.22 72.57,83.94 L72.57,73.33 C72.54,67.8 69.23,63.74 61.32,63.74 L61.3,63.76 Z M65.79,81.4 C65.8269187,82.2131419 65.2285698,82.916311 64.42,83.01 L50.07,83.01 C50.07,82.75 50.07,82.12 50.07,81.58 C50.0579672,81.1274064 49.7674031,80.7293734 49.34,80.58 C48.01,80.11 47.34,80.01 48.91,80.01 L65.81,80.01 L65.79,81.4 Z M30.44,69.97 L15.25,69.97 C14.5833333,69.97 14.25,70.3333333 14.25,71.06 L14.25,75.53 C14.25,76.2566667 14.5833333,76.62 15.25,76.62 L28.98,76.62 C29.429524,76.5801226 29.8737234,76.740734 30.1937958,77.0588782 C30.5138681,77.3770224 30.6771605,77.8202432 30.64,78.27 L30.64,80.82 C30.6962645,81.4003589 30.4964591,81.9763741 30.0928979,82.3972308 C29.6893366,82.8180876 29.122208,83.041875 28.54,83.01 L14.87,83.01 C8.47,83.01 8.58,78.67 8.58,76.54 L8.58,64.36 C8.54,63.11 4.04,63.11 8.83,63.11 L27.62,63.11 C28.31,63.11 28.62,62.75 28.62,62.02 L28.62,57.4 C28.62,56.8477153 28.1722847,56.4 27.62,56.4 L11.62,56.4 C5.77,56.4 1.37,59.7 1.37,65.55 L1.37,79.87 C1.37,85.2823905 5.75760945,89.67 11.17,89.67 L29.71,89.67 C34.91,89.67 37.35,85.99 37.35,82.44 L37.35,75.77 C37.35,73.49 35.54,69.97 30.44,69.97 Z"/>
    <rect width="101.74" height="1" x="86.13" y="100.65" fill="#71B1B7" fill-rule="nonzero"/>
    <circle cx="187.86" cy="100.97" r="1" fill="#71B1B7" fill-rule="nonzero"/>
    <circle cx="41.604" cy="54.236" r="1" fill="#71B1B7" fill-rule="nonzero" transform="rotate(-72.37 41.604 54.236)"/>
    <circle cx="52.208" cy="53.949" r="1" fill="#71B1B7" fill-rule="nonzero" transform="rotate(-72.37 52.208 53.95)"/>
    <path fill="#502A82" fill-rule="nonzero" d="M41.43,54.4 L42.22,43.26 L29.99,29.86 L20.44,40.49 L14.28,25.49 L14.4,25.42 L45.12,6.64 L42.54,43.11 L52.54,54.11 L41.43,54.4 Z M42.54,43.58 L41.77,54.11 L51.84,53.84 L42.54,43.58 Z M29.98,29.39 L42.25,42.82 L44.76,7.23 L14.68,25.65 L20.54,39.91 L29.98,29.39 Z"/>
    <path fill="#007579" fill-rule="nonzero" d="M41.6,54.39 C41.5478474,54.3892506 41.4993335,54.3631278 41.47,54.32 L24.95,31.49 L20.64,40.27 C20.6079649,40.3313354 20.5401308,40.3651265 20.4718749,40.3537505 C20.4036191,40.3423746 20.3504109,40.2884097 20.34,40.22 L18.6,22.68 C18.5916783,22.6072726 18.6337745,22.5381727 18.7022181,22.5122113 C18.7706617,22.4862499 18.8479954,22.5100489 18.89,22.57 L24.89,30.88 L33.22,13.88 C33.2491072,13.8193448 33.3130491,13.7833775 33.38,13.79 L64.84,17.38 C64.8938218,17.3860848 64.9409108,17.4189867 64.965134,17.467433 C64.9893572,17.5158793 64.9874252,17.5732917 64.96,17.62 L41.74,54.32 C41.7106665,54.3631278 41.6621526,54.3892506 41.61,54.39 L41.6,54.39 Z M25.11,31.17 L41.6,53.95 L64.54,17.67 L33.47,14.11 L25.11,31.17 Z M18.97,23.23 L20.6,39.63 L24.74,31.2 L18.97,23.23 Z"/>
    <path fill="#71B1B7" fill-rule="nonzero" d="M30.69,41.55 L30.62,41.55 C30.582631,41.5315621 30.5539295,41.4992729 30.54,41.46 L19.97,9.46 C19.9451942,9.388079 19.9744624,9.3086366 20.04,9.27 L34.65,1.11 C34.6969026,1.08511059 34.7530974,1.08511059 34.8,1.11 L45.01,6.76 L45.01,6.76 L64.01,29.1 C64.0420764,29.1402093 64.052866,29.1933879 64.0389972,29.2429192 C64.0251285,29.2924505 63.9882927,29.332294 63.94,29.35 L30.74,41.54 L30.69,41.55 Z M20.31,9.49 L30.79,41.19 L63.69,29.19 L44.84,7.06 L34.73,1.47 L20.31,9.49 Z"/>
    <path fill="#71B1B7" fill-rule="nonzero" d="M41.6,54.39 C41.5393679,54.3881646 41.4849878,54.3521993 41.4595678,54.2971226 C41.4341478,54.2420459 41.4420598,54.1773303 41.48,54.13 L63.78,29.23 L56.42,5.99 L20.23,9.56 L14.63,25.63 C14.6194521,25.692173 14.5733687,25.7423514 14.5123161,25.7581412 C14.4512634,25.773931 14.3866307,25.7523868 14.3472624,25.7031233 C14.3078942,25.6538599 14.3011345,25.5860671 14.33,25.53 L19.97,9.36 C19.9886012,9.30140267 20.0391321,9.25864575 20.1,9.25 L56.54,5.66 C56.615612,5.65158674 56.6866921,5.69757971 56.71,5.77 L64.14,29.22 C64.1648894,29.2669026 64.1648894,29.3230974 64.14,29.37 L41.79,54.37 C41.7380341,54.4178966 41.6607999,54.4260265 41.6,54.39 Z"/>
    <path fill="#71B1B7" fill-rule="nonzero" d="M41.6,54.39 L41.6,54.39 C41.5442042,54.3730358 41.5020575,54.3270576 41.49,54.27 L33.49,15.04 L30.76,41.43 C30.755786,41.4732988 30.7341226,41.513015 30.7,41.54 C30.6617424,41.556697 30.6182576,41.556697 30.58,41.54 L20.48,40.36 C20.4374228,40.3550154 20.3986266,40.3331538 20.3723082,40.2993158 C20.3459898,40.2654779 20.3343507,40.2224941 20.34,40.18 C20.3449846,40.1374228 20.3668462,40.0986266 20.4006842,40.0723082 C20.4345221,40.0459898 20.4775059,40.0343507 20.52,40.04 L30.52,41.23 L33.27,13.96 C33.2795581,13.8831961 33.3427201,13.8242448 33.42,13.82 C33.4993796,13.8140122 33.5696115,13.8710757 33.58,13.95 L41.75,53.89 L63.84,29.17 C63.8938663,29.1198868 63.9749644,29.1129668 64.0365424,29.1532293 C64.0981203,29.1934918 64.1243045,29.2705579 64.1,29.34 L52.34,54.02 C52.3013401,54.1000813 52.2050813,54.1336599 52.125,54.095 C52.0449187,54.0563401 52.0113401,53.9600813 52.05,53.88 L63.34,30.2 L41.72,54.34 C41.6888784,54.3728979 41.6452735,54.3910666 41.6,54.39 Z"/>
    <circle cx="63.575" cy="29.398" r="1" fill="#71B1B7" fill-rule="nonzero" transform="rotate(-72.474 63.576 29.399)"/>
    <circle cx="64.82" cy="17.535" r="1" fill="#71B1B7" fill-rule="nonzero" transform="rotate(-72.37 64.82 17.535)"/>
    <circle cx="44.995" cy="6.995" r="1" fill="#71B1B7" fill-rule="nonzero" transform="rotate(-30.31 44.995 6.995)"/>
    <circle cx="33.345" cy="13.979" r="1" fill="#71B1B7" fill-rule="nonzero" transform="rotate(-30.31 33.345 13.979)"/>
    <circle cx="56.217" cy="6.009" r="1" fill="#71B1B7" fill-rule="nonzero" transform="rotate(-30.174 56.217 6.01)"/>
    <circle cx="23.658" cy="20.041" r="1" fill="#71B1B7" fill-rule="nonzero" transform="rotate(-30.31 23.658 20.04)"/>
    <circle cx="34.73" cy="1.274" r="1" fill="#71B1B7" fill-rule="nonzero" transform="rotate(-30.31 34.73 1.274)"/>
    <circle cx="20.219" cy="9.463" r="1" fill="#71B1B7" fill-rule="nonzero" transform="rotate(-30.31 20.219 9.463)"/>
    <circle cx="30.693" cy="41.385" r="1" fill="#71B1B7" fill-rule="nonzero" transform="rotate(-72.37 30.693 41.385)"/>
    <circle cx="20.49" cy="40.193" r="1" fill="#71B1B7" fill-rule="nonzero" transform="rotate(-72.37 20.49 40.193)"/>
    <circle cx="14.476" cy="25.504" r="1" fill="#71B1B7" fill-rule="nonzero" transform="rotate(-72.37 14.476 25.504)"/>
    <circle cx="18.819" cy="22.768" r="1" fill="#71B1B7" fill-rule="nonzero" transform="rotate(-72.37 18.82 22.768)"/>
    <circle cx="29.981" cy="29.627" r="1" fill="#71B1B7" fill-rule="nonzero" transform="rotate(-72.37 29.98 29.627)"/>
    <circle cx="46.988" cy="48.177" r="1" fill="#71B1B7" fill-rule="nonzero" transform="rotate(-72.37 46.988 48.177)"/>
    <circle cx="55.185" cy="32.368" r="1" fill="#71B1B7" fill-rule="nonzero" transform="rotate(-72.474 55.186 32.368)"/>
    <circle cx="38.386" cy="38.589" r="1" fill="#71B1B7" fill-rule="nonzero" transform="rotate(-72.37 38.386 38.589)"/>
    <circle cx="26.536" cy="33.442" r="1" fill="#71B1B7" fill-rule="nonzero" transform="rotate(-72.37 26.536 33.442)"/>
    <circle cx="24.683" cy="31.127" r="1" fill="#71B1B7" fill-rule="nonzero" transform="rotate(-72.474 24.683 31.127)"/>
    <circle cx="35.861" cy="27.467" r="1" fill="#71B1B7" fill-rule="nonzero" transform="rotate(-72.474 35.86 27.467)"/>
    <circle cx="31.878" cy="28.953" r="1" fill="#71B1B7" fill-rule="nonzero" transform="rotate(-72.37 31.878 28.953)"/>
    <circle cx="31.598" cy="31.392" r="1" fill="#71B1B7" fill-rule="nonzero" transform="rotate(-72.37 31.598 31.392)"/>
    <circle cx="56.417" cy="20.435" r="1" fill="#71B1B7" fill-rule="nonzero" transform="rotate(-72.37 56.417 20.435)"/>
    <circle cx="43.672" cy="24.829" r="1" fill="#71B1B7" fill-rule="nonzero" transform="rotate(-72.37 43.672 24.83)"/>
    <circle cx="61.786" cy="22.352" r="1" fill="#71B1B7" fill-rule="nonzero" transform="rotate(-72.37 61.786 22.352)"/>
    <circle cx="60.441" cy="19.068" r="1" fill="#71B1B7" fill-rule="nonzero" transform="rotate(-72.474 60.442 19.068)"/>
    <circle cx="60.081" cy="16.972" r="1" fill="#71B1B7" fill-rule="nonzero" transform="rotate(-72.37 60.08 16.972)"/>
    <circle cx="52.827" cy="16.221" r="1" fill="#71B1B7" fill-rule="nonzero" transform="rotate(-72.37 52.827 16.221)"/>
    <circle cx="44.344" cy="15.252" r="1" fill="#71B1B7" fill-rule="nonzero" transform="rotate(-72.37 44.344 15.252)"/>
    <circle cx="60.198" cy="24.826" r="1" fill="#71B1B7" fill-rule="nonzero" transform="rotate(-72.37 60.198 24.826)"/>
    <circle cx="46.046" cy="47.264" r="1" fill="#007579" fill-rule="nonzero" transform="rotate(-72.37 46.046 47.264)"/>
    <circle cx="42.836" cy="36.983" r="1" fill="#71B1B7" fill-rule="nonzero" transform="rotate(-72.37 42.836 36.983)"/>
    <circle cx="41.983" cy="43.062" r="1" fill="#502A82" fill-rule="nonzero" transform="rotate(-72.474 41.984 43.062)"/>
    <path fill="#71B1B7" fill-rule="nonzero" d="M29.98,29.78 C29.9035617,29.7774049 29.8396487,29.7210758 29.8274702,29.6455693 C29.8152918,29.5700628 29.8582538,29.4964958 29.93,29.47 L64.54,17.46 L56.41,5.96 L34.7,1.44 C34.6365998,1.4382191 34.5802368,1.39915649 34.5563122,1.34041665 C34.5323876,1.28167681 34.5454185,1.21435017 34.5895323,1.16877906 C34.6336462,1.12320795 34.7005139,1.10799646 34.76,1.13 L56.54,5.66 C56.5796946,5.6667074 56.6154019,5.6881318 56.64,5.72 L64.93,17.44 C64.9575316,17.4811203 64.9644866,17.532666 64.9488377,17.5796126 C64.9331889,17.6265591 64.8966974,17.6636227 64.85,17.68 L30.04,29.77 L29.98,29.78 Z"/>
  </g>
</svg>
