<svg xmlns="http://www.w3.org/2000/svg" width="24" height="24" viewBox="0 0 24 24">
  <path d="M12,24 C5.372583,24 0,18.627417 0,12 C0,5.372583 5.372583,0 12,0 C18.627417,0 24,5.372583 24,12 C24,18.627417 18.627417,24 12,24 Z M11.6167859,13.6655516 L11.4853602,13.2168665 C11.1946398,12.4498942 10.895335,11.7363627 10.6532796,11.0040302 C10.2793753,9.87252393 10.0075164,8.71623174 10.087738,7.5103073 C10.1596171,6.42970277 10.6121713,5.58117884 11.6830428,5.20830227 C12.1709622,5.0383073 12.6975718,4.90071537 13.2087053,4.89346096 C14.1315869,4.88040302 15.0556171,4.98202519 15.9797683,5.02192443 C16.1719496,5.03020655 16.3667909,4.97809572 16.5603627,4.95397481 C16.5641713,4.91601008 16.5678589,4.87798489 16.5716071,4.8399597 C16.46533,4.75586902 16.3707204,4.64632746 16.2510831,4.59125441 C14.6883023,3.87149622 13.0719597,3.33708816 11.341602,3.2150932 C10.0450579,3.12374811 8.77142569,3.23570781 7.62371788,3.89217128 C6.02956171,4.80405038 5.29275567,6.2738539 5.07270529,8.04640806 C5.03860957,8.32104786 5.05831738,8.60046348 5.01829723,8.87443829 L5.01829723,9.17990932 C5.02240806,10.2941864 5.22238791,11.3784786 5.48814106,12.4556373 C5.54381864,12.6813703 5.64876574,12.7664282 5.86893703,12.7993149 C7.41908312,13.0307305 8.96747607,13.273995 10.5167758,13.5111537 C10.8804635,13.5668312 11.2455416,13.6138035 11.6167859,13.6655516 Z M5.49436776,13.182529 C5.61636272,13.4906599 5.71012594,13.7330176 5.80787909,13.9735013 C6.75754156,16.3106902 7.70798992,18.6474559 8.6577733,20.9845239 C8.70885642,21.1104484 8.74863476,21.2040907 8.93652393,21.1671537 C11.0867305,20.743738 13.1743073,20.1375718 15.0959395,19.05467 C16.903073,18.0362116 18.4233552,16.7276977 19.3236877,14.8020151 C20.0592242,13.2288967 20.1732393,11.6363123 19.5195567,10.0072141 C19.0391335,8.80957179 18.2100151,7.87266499 17.289733,7.00364736 C17.2284332,6.945733 17.1242116,6.9332796 16.9551839,6.8658136 C17.0092292,7.13688665 17.0290579,7.32356675 17.0856423,7.49851889 C17.1659849,7.74686146 17.2726247,7.98655919 17.3688665,8.22964232 C18.0279295,9.89434761 17.6062065,11.3781763 16.1667506,12.4472343 C15.1909723,13.1718287 14.070529,13.5616927 12.8936222,13.7690479 C10.8820957,14.1234257 8.88338539,13.9796071 6.90383879,13.5014811 C6.45775315,13.3937531 6.00858438,13.2985995 5.49436776,13.182529 Z M14.4203123,11.4172897 C14.4910428,11.4138438 14.6018539,11.4112443 14.7122418,11.4024786 C16.0633753,11.2957179 16.8918892,10.0624685 16.4458035,8.82299244 C15.9128463,7.34212594 14.0779647,6.26206549 12.5281814,6.51693703 C11.439597,6.696 10.7895416,7.67703778 10.9845642,8.7510529 C11.2544282,10.2379647 12.942529,11.4366348 14.4203123,11.4172897 Z"/>
</svg>
